<?xml version="1.0" standalone="no"?>
<!DOCTYPE svg PUBLIC "-//W3C//DTD SVG 1.1//EN" "http://www.w3.org/Graphics/SVG/1.1/DTD/svg11.dtd" >
<svg xmlns="http://www.w3.org/2000/svg">
<metadata></metadata>
<defs>
<font id="contrail_oneregular" horiz-adv-x="964" >
<font-face units-per-em="2048" ascent="1638" descent="-410" />
<missing-glyph horiz-adv-x="420" />
<glyph horiz-adv-x="2048" />
<glyph horiz-adv-x="2048" />
<glyph unicode="&#xd;" horiz-adv-x="2048" />
<glyph unicode=" "  horiz-adv-x="420" />
<glyph unicode="&#x09;" horiz-adv-x="420" />
<glyph unicode="&#xa0;" horiz-adv-x="420" />
<glyph unicode="!" horiz-adv-x="585" d="M105 132q0 69 53 120t124 51q60 0 100 -41t40 -101q0 -71 -53 -121.5t-123 -50.5q-60 0 -100.5 41.5t-40.5 101.5zM188 450l107 1125q1 21 26 24l213 7q25 -1 25 -25l-149 -1119q-3 -25 -25 -26l-175 -7q-22 1 -22 21z" />
<glyph unicode="&#x22;" horiz-adv-x="980" d="M245 1088l26 609q2 23 24 24l200 7q32 -2 32 -26l-98 -603q-3 -13 -7.5 -19t-17.5 -7l-126 -5q-32 2 -33 20zM686 1088l26 609q2 23 24 24l200 7q32 -2 32 -26l-98 -603q-3 -13 -7.5 -19t-17.5 -7l-126 -5q-32 2 -33 20z" />
<glyph unicode="#" horiz-adv-x="1295" d="M105 419l17 161q1 12 6.5 18t20.5 7l205 7l66 358l-226 -8q-25 1 -25 24l18 160q1 9 2.5 13.5t7.5 8.5t16 4l245 8l76 410q2 13 7.5 18.5t18.5 6.5l155 6q25 -2 25 -25l-75 -408l204 7l73 395q2 13 7 18t19 7l155 6q25 -2 25 -25l-73 -394l187 7q23 -1 23 -26l-19 -160 q-3 -24 -25 -25l-205 -7l-66 -356l226 8q25 -1 25 -27l-20 -159q-3 -13 -7.5 -19t-17.5 -7l-245 -9l-72 -393q-2 -10 -4 -15t-7 -8.5t-15 -3.5l-160 -6q-21 2 -21 19l73 400l-204 -7l-70 -379q-2 -10 -4 -15t-7 -8.5t-15 -3.5l-160 -6q-21 2 -21 19l71 386l-185 -6 q-25 1 -25 24zM560 620l204 7l66 357l-204 -7z" />
<glyph unicode="$" d="M182 9l25 209q4 22 26 24q156 16 206 49.5t50 123.5q0 110 -70 331q-32 100 -47 153t-31.5 136t-16.5 145q0 106 35 183t100 122.5t149 67t190 21.5q27 0 27 -25l-27 -207q-2 -14 -7 -20t-18 -7q-102 -7 -148 -35t-46 -80q0 -94 84 -375q81 -270 81 -389 q0 -451 -537 -451q-25 0 -25 24zM326 -191l22 206q1 13 7 18t18 7l199 133l-42 -358q-2 -26 -25 -26l-154 -5q-24 1 -25 25zM486 1466l33 296q1 14 7 19.5t19 6.5l152 5q26 0 26 -23l-32 -284q-1 -16 -6.5 -21t-18.5 -6l-154 -18q-23 0 -26 25z" />
<glyph unicode="%" horiz-adv-x="1452" d="M144 1225q0 170 88 283.5t234 113.5q138 0 209.5 -90.5t71.5 -238.5q0 -173 -87.5 -285.5t-234.5 -112.5q-138 0 -209.5 91t-71.5 239zM211 65q0 10 5 20l942 1531q12 23 28 23l122 -66q20 -11 20 -26q0 -9 -6 -20l-941 -1531q-13 -23 -30 -23l-121 66q-19 10 -19 26z M315 1240q0 -178 124 -178q66 0 101 60.5t35 155.5q0 179 -124 179q-66 0 -101 -61.5t-35 -155.5zM782 314q0 170 87.5 284t233.5 114q138 0 210 -91.5t72 -238.5q0 -173 -88.5 -285t-235.5 -112q-137 0 -208 90.5t-71 238.5zM951 329q0 -180 126 -180q65 0 100 61.5 t35 155.5q0 180 -123 180q-66 0 -102 -61.5t-36 -155.5z" />
<glyph unicode="&#x26;" horiz-adv-x="1055" d="M73 318q0 79 24.5 152t71 136t96 112.5t116.5 103.5q-94 240 -94 390q0 176 95 285t272 109q137 0 225 -89.5t88 -228.5q0 -73 -23.5 -140.5t-69.5 -127t-94.5 -106.5t-116.5 -102q80 -177 199.5 -399.5t197.5 -352.5q9 -15 9 -29q0 -25 -26 -26l-232 -9q-18 1 -27 19 q-207 378 -321 620q-135 -147 -135 -278q0 -118 119 -118q33 0 93.5 2.5t66.5 2.5q20 0 20 -27l-23 -192q-4 -24 -25 -26q-100 -10 -195 -10q-154 0 -232.5 94.5t-78.5 234.5zM533 1236q0 -90 53 -236q136 153 136 270q0 48 -23 78t-66 30q-100 0 -100 -142z" />
<glyph unicode="'" horiz-adv-x="539" d="M245 1088l26 609q2 23 24 24l200 7q32 -2 32 -26l-98 -603q-3 -13 -7.5 -19t-17.5 -7l-126 -5q-32 2 -33 20z" />
<glyph unicode="(" horiz-adv-x="694" d="M183 -65q0 204 43 607t95 701q18 104 33.5 165t49.5 133.5t81.5 110.5t127.5 64.5t190 26.5q17 0 23.5 -6t6.5 -24l-22 -175q-3 -25 -22 -25q-98 0 -150.5 -55t-77.5 -202q-38 -221 -86 -623.5t-48 -662.5q0 -161 127 -161q21 0 21 -25l-23 -185q-3 -26 -25 -26 q-169 0 -256.5 97.5t-87.5 264.5z" />
<glyph unicode=")" horiz-adv-x="694" d="M-94 -397l22 175q3 25 22 25q98 0 150.5 55t77.5 202q38 221 86 623.5t48 662.5q0 161 -127 161q-21 0 -21 25l23 185q3 26 25 26q169 0 256.5 -97.5t87.5 -264.5q0 -204 -43 -607t-95 -701q-18 -104 -33.5 -165t-49.5 -133.5t-81.5 -110.5t-127.5 -64.5t-190 -26.5 q-17 0 -23.5 6t-6.5 24z" />
<glyph unicode="*" horiz-adv-x="992" d="M188 1123q0 9 7 15l268 140l-250 128q-11 6 -11 18q0 4 3 12l80 135q11 15 23 15q6 0 11 -3l211 -208l45 287q5 18 19 18q1 0 3 -0.5t3 -0.5l153 -37q21 -5 21 -30l-137 -276l280 45q19 -2 23 -20l14 -156q0 -28 -22 -28l-283 41l123 -243q1 -3 1 -8q0 -13 -11 -20 l-145 -61q-8 -2 -14 -2q-14 0 -21 12l-47 294l-207 -207q-6 -6 -14 -6t-13 8l-106 117q-7 14 -7 21z" />
<glyph unicode="+" d="M159 660l21 179q1 9 2.5 13.5t7.5 8.5t16 4l212 11l25 224q2 13 7.5 18.5t19.5 6.5l176 6q27 -1 27 -25l-25 -218l212 11q25 -1 25 -25l-23 -180q-3 -24 -24 -25l-215 -12l-28 -248q-3 -25 -26 -26l-183 -6q-22 2 -22 21l28 247l-208 -11q-25 1 -25 26z" />
<glyph unicode="," horiz-adv-x="585" d="M99 132q0 69 52.5 120t123.5 51q64 0 102 -46t38 -113q0 -119 -54 -262.5t-105 -222.5q-7 -11 -10.5 -15.5t-10.5 -9t-16 -4.5q-42 -3 -68 -3q-20 0 -20 21q0 13 14 72q40 168 48 276q-46 14 -70 52.5t-24 83.5z" />
<glyph unicode="-" d="M155 660l20 179q1 9 2.5 13.5t7.5 8.5t16 4l655 24q23 -1 23 -25l-21 -180q-3 -24 -25 -25l-654 -25q-24 1 -24 26z" />
<glyph unicode="." horiz-adv-x="585" d="M99 132q0 69 52.5 120t123.5 51q60 0 100 -41t40 -101q0 -70 -53 -121t-124 -51q-60 0 -99.5 41.5t-39.5 101.5z" />
<glyph unicode="/" horiz-adv-x="519" d="M-88 -350l531 2065q3 14 8 19.5t19 6.5l142 -32q26 -4 26 -25l-532 -2061q-3 -15 -8.5 -21t-17.5 -6l-148 33q-20 6 -20 21z" />
<glyph unicode="0" d="M117 369q0 97 18 303t60 440q13 70 22.5 116t27 103t36.5 93t49 74t67 59.5t88 35t114 13.5q297 0 297 -392q0 -98 -18 -302t-58 -434q-12 -69 -22 -115.5t-27 -103t-36.5 -93t-49.5 -74t-67 -59t-88 -35t-114 -13.5q-299 0 -299 384zM373 379q0 -65 17 -109t56 -44 q43 0 72 55t52 183q24 137 47.5 379t23.5 368q0 64 -17 109t-56 45q-42 0 -71.5 -55.5t-51.5 -183.5q-25 -139 -48.5 -380.5t-23.5 -366.5z" />
<glyph unicode="1" d="M124 20l23 193q1 9 2.5 13t7.5 8t16 4l157 6l122 1077l-155 -5q-25 1 -25 23q0 13 39 104t52 116q13 22 36 24l314 11q19 0 19 -26l-149 -1315l167 7q24 -1 24 -25l-24 -192q-3 -26 -25 -27l-576 -20q-25 1 -25 24z" />
<glyph unicode="2" d="M127 23v52q0 63 11.5 129t26 119t45.5 122t51 110t63 111.5t61 99t64 99.5q74 113 112.5 194.5t38.5 145.5q0 83 -31.5 116t-87.5 33q-36 0 -128 -14q-80 -13 -92 -13q-22 0 -22 27l24 188q1 13 6 18t19 9q52 13 128.5 22t127.5 9q142 0 227 -94t85 -244 q0 -140 -60 -273.5t-167 -288.5q-94 -136 -149.5 -235t-78.5 -197l359 15q24 -1 24 -27l-24 -211q-2 -24 -27 -27l-581 -22q-15 1 -20 7t-5 20z" />
<glyph unicode="3" d="M126 30l23 189l1.5 10.5t3 7.5t6.5 5.5t11 1.5q12 0 75 -7q88 -10 124 -10q94 0 159 68.5t65 211.5q0 107 -34.5 147t-96.5 40q-46 0 -103 -5q-50 -5 -64 -5q-22 0 -22 26l20 162q3 23 24 26q35 6 50.5 8.5t47 10t46.5 14.5t40.5 20t38.5 27.5t30 37t24.5 49t13.5 62.5 t6 78q0 149 -119 149q-18 0 -128 -14q-17 -2 -40 -5.5t-36 -5.5t-17 -2q-21 0 -21 27l23 188q2 13 7.5 18.5t18.5 8.5q52 13 129 22t127 9q152 0 232 -94t80 -231q0 -37 -2 -68.5t-10.5 -74.5t-23 -78t-41 -73.5t-62.5 -66.5t-90.5 -50t-122.5 -32q40 5 87 5 q131 0 186.5 -71.5t55.5 -207.5q0 -81 -15.5 -158t-53 -152.5t-93 -132t-142 -91.5t-193.5 -35q-106 0 -194 11q-13 2 -18 3.5t-9 7.5t-4 19z" />
<glyph unicode="4" d="M38 415q0 4 13 38l471 1105q9 24 47 25l249 13q26 -1 26 -25l-105 -922l156 4q24 -1 24 -27l-20 -176q-2 -14 -7 -19t-18 -6l-161 -6l-43 -386q-2 -14 -7.5 -19.5t-19.5 -6.5l-206 -11q-21 0 -21 19l60 396l-410 -14q-28 0 -28 18zM351 638l157 4l77 606z" />
<glyph unicode="5" d="M142 30l23 189q3 25 26 25q17 0 81 -8q66 -9 120 -9q123 0 171 76t48 238q0 96 -34 147.5t-125 51.5q-57 0 -139 -16q-65 -13 -91 -13q-22 0 -22 27l93 821q2 12 7.5 17.5t19.5 6.5l543 19q26 -1 26 -27l-28 -213q-4 -25 -27 -26l-340 -5l-40 -379q106 19 166 19 q68 0 118 -34.5t76 -93.5t38 -125t12 -141q0 -127 -27.5 -231t-85 -185.5t-155.5 -126.5t-229 -45q-127 0 -194 11q-13 2 -18 3.5t-9 7.5t-4 19z" />
<glyph unicode="6" d="M130 449q0 157 25.5 374t57.5 355q11 50 22 87t30 83.5t41.5 80t57.5 68t77 55.5t100 34.5t128 13.5q86 0 168 -15q17 -2 23.5 -7.5t6.5 -20.5l-23 -191q-3 -22 -21 -22q-12 0 -74 8q-78 10 -107 10q-88 0 -130.5 -43.5t-67.5 -170.5q-17 -92 -29 -198q96 58 176 58 q159 0 227 -109t68 -310q0 -604 -420 -604q-181 0 -258.5 117t-77.5 347zM380 446q0 -48 3.5 -83t15 -77.5t39 -65.5t69.5 -23q44 0 74 33t44 93t19 120.5t5 139.5q0 218 -156 218q-48 0 -96 -17q-17 -194 -17 -338z" />
<glyph unicode="7" d="M203 1341q0 12 22 101.5t30 116.5q9 23 36 24l620 22q21 -1 23 -27l-27 -212l-402 -1339q-6 -22 -25 -23l-216 -8q-22 2 -22 19l400 1320l-414 -19q-25 1 -25 25z" />
<glyph unicode="8" d="M97 366q0 334 266 506q-73 74 -110.5 152t-37.5 178q0 82 21 150t56.5 114.5t84 78.5t101.5 46.5t110 14.5q168 0 250.5 -90t82.5 -240q0 -102 -59.5 -227.5t-167.5 -212.5q191 -163 191 -356q0 -233 -108 -364t-335 -131q-93 0 -162 31t-108 86t-57 120.5t-18 143.5z M329 402q0 -89 36.5 -140t111.5 -51q157 0 157 237q0 102 -38.5 174.5t-104.5 133.5q-79 -64 -120.5 -160.5t-41.5 -193.5zM447 1161q0 -72 25.5 -122.5t80.5 -96.5q54 50 89.5 127.5t35.5 166.5q0 72 -28.5 115t-74.5 43q-128 0 -128 -233z" />
<glyph unicode="9" d="M170 1002q0 604 420 604q181 0 258.5 -117t77.5 -347q0 -157 -25.5 -374t-57.5 -355q-11 -50 -22 -87t-30 -83.5t-41.5 -80t-57.5 -68t-77 -55.5t-100 -34.5t-128 -13.5q-86 0 -168 15q-17 2 -23.5 7.5t-6.5 20.5l23 191q3 22 21 22q12 0 74 -8q78 -10 107 -10 q88 0 130.5 43.5t67.5 170.5q17 92 29 198q-96 -58 -176 -58q-159 0 -227 109t-68 310zM407 1008q0 -218 156 -218q48 0 96 17q17 194 17 338q0 48 -3.5 83t-15 77.5t-39 65.5t-69.5 23q-44 0 -74 -33t-44 -93t-19 -120.5t-5 -139.5z" />
<glyph unicode=":" horiz-adv-x="585" d="M99 132q0 69 52.5 120t123.5 51q60 0 100 -41t40 -101q0 -70 -53 -121t-124 -51q-60 0 -99.5 41.5t-39.5 101.5zM188 925q0 69 52.5 120t123.5 51q60 0 100 -41t40 -101q0 -70 -53 -121t-124 -51q-60 0 -99.5 41.5t-39.5 101.5z" />
<glyph unicode=";" horiz-adv-x="585" d="M99 132q0 69 52.5 120t123.5 51q64 0 102 -46t38 -113q0 -119 -54 -262.5t-105 -222.5q-7 -11 -10.5 -15.5t-10.5 -9t-16 -4.5q-42 -3 -68 -3q-20 0 -20 21q0 13 14 72q40 168 48 276q-46 14 -70 52.5t-24 83.5zM188 925q0 69 52.5 120t123.5 51q60 0 100 -41t40 -101 q0 -70 -53 -121t-124 -51q-60 0 -99.5 41.5t-39.5 101.5z" />
<glyph unicode="&#x3c;" d="M213 641q0 2 4 36.5t5 38.5q2 8 12 18l420 343q13 13 22 13q6 0 12 -6l123 -130q5 -8 5 -15t-6 -13l-327 -258l262 -317q7 -7 7 -14q0 -9 -11 -19l-142 -104q-10 -8 -15 -8q-6 0 -21 15l-344 404q-6 7 -6 16z" />
<glyph unicode="=" d="M122 399l20 179q1 9 2.5 13.5t7.5 8.5t16 4l655 24q23 -1 23 -25l-21 -180q-3 -24 -25 -25l-654 -25q-24 1 -24 26zM173 853l20 179q1 9 2.5 13.5t7.5 8.5t16 4l655 24q23 -1 23 -25l-21 -180q-3 -24 -25 -25l-654 -25q-24 1 -24 26z" />
<glyph unicode="&#x3e;" d="M198 357q0 7 6 13l327 258l-262 317q-7 7 -7 14q0 9 11 19l142 104q10 8 15 8q6 0 21 -15l344 -404q6 -7 6 -16q0 -2 -4 -36.5t-5 -38.5q-2 -8 -12 -18l-420 -343q-13 -13 -22 -13q-6 0 -12 6l-123 130q-5 8 -5 15z" />
<glyph unicode="?" horiz-adv-x="819" d="M192 1368l24 190q1 12 6 17t19 10q174 31 256 31q142 0 227 -94.5t85 -246.5q0 -122 -38.5 -210.5t-109.5 -180.5q-47 -61 -68 -91t-52.5 -86.5t-44.5 -115t-13 -128.5q0 -25 -25 -26l-197 -8q-9 0 -15 6t-6 15q0 57 7 110.5t15.5 92t28 83t31 68t39.5 63.5t38 52.5 t41 52.5q57 74 85.5 132.5t28.5 134.5q0 129 -121 129q-52 0 -139 -16q-65 -12 -80 -12q-22 0 -22 28zM195 132q0 69 52.5 120t123.5 51q60 0 100.5 -41t40.5 -101q0 -70 -53 -121t-124 -51q-60 0 -100 41.5t-40 101.5z" />
<glyph unicode="@" horiz-adv-x="2128" d="M172 477q0 240 81.5 455t220.5 368t331.5 242.5t405.5 89.5q167 0 314.5 -60.5t256 -168.5t171.5 -266t63 -344q0 -136 -25.5 -249.5t-68 -194t-103 -143t-125.5 -101t-139.5 -63t-141.5 -34t-136 -9.5q-21 1 -21 20l-12 226q-116 -256 -316 -256q-61 0 -109 23.5 t-78.5 62t-50 92.5t-27 110.5t-7.5 120.5q0 201 38 392q15 75 31 132.5t43.5 115.5t62.5 95.5t86.5 61t116.5 23.5q93 0 142 -43.5t83 -130.5l11 134q1 12 6 17.5t19 6.5l197 7q27 -1 27 -26l-103 -926q189 14 280 142.5t91 391.5q0 187 -80.5 326.5t-217.5 211.5t-310 72 q-214 0 -395.5 -121t-286.5 -327t-105 -448q0 -323 183.5 -509.5t526.5 -186.5q76 0 175.5 17t172.5 34t84 17q24 0 24 -26l-14 -177q-1 -12 -5.5 -17t-18.5 -9q-110 -34 -209 -51.5t-228 -17.5q-271 0 -477.5 110t-320 314.5t-113.5 473.5zM908 458q0 -239 127 -239 q58 0 91.5 51t57.5 188q30 174 30 287q0 29 -1 47.5t-4 51t-11 53.5t-21 42.5t-35.5 32.5t-51.5 11q-55 0 -89 -51.5t-63 -187.5q-8 -38 -19 -132.5t-11 -153.5z" />
<glyph unicode="A" d="M29 15l439 1513q7 22 27 23l220 8q21 -1 23 -24l117 -1506q0 -13 -6 -18.5t-20 -6.5l-209 -8q-21 0 -21 19l-15 330l-227 -9l-75 -308q-3 -14 -8 -19t-18 -6l-207 -7q-20 0 -20 19zM409 549l166 6l-26 568z" />
<glyph unicode="B" horiz-adv-x="1011" d="M110 15l172 1505q2 18 9 24.5t27 7.5q216 16 323 16q180 0 262 -86.5t82 -237.5q0 -298 -230 -411q78 -33 122 -101.5t44 -168.5q0 -114 -31.5 -210t-97.5 -174t-179.5 -124.5t-265.5 -51.5l-215 -7q-22 2 -22 19zM390 246q143 0 216.5 91t73.5 239q0 70 -48 114t-134 44 q-41 0 -54 -1zM461 892q144 1 215.5 79t71.5 225q0 159 -164 159q-46 0 -72 -3z" />
<glyph unicode="C" horiz-adv-x="874" d="M138 365q0 309 74 718q12 68 23.5 115.5t30.5 102.5t42.5 91.5t60 72.5t83 56.5t110.5 33.5t143 13q91 0 161 -11q11 -2 16 -3.5t9 -7.5t4 -17l-23 -186q-4 -26 -21 -26q-15 0 -68 8q-63 9 -99 9q-96 0 -146 -48.5t-75 -188.5q-24 -135 -47 -366.5t-23 -354.5 q0 -145 128 -145q37 0 139 14q82 11 95 11q21 0 21 -25l-23 -186q-2 -12 -7 -17t-19 -8q-172 -31 -267 -31q-156 0 -239 101t-83 275z" />
<glyph unicode="D" horiz-adv-x="1058" d="M110 15l173 1513q2 12 7 17t19 6q178 17 347 17q166 0 256 -96.5t90 -264.5q0 -317 -71 -730q-20 -114 -50.5 -193.5t-72.5 -132.5t-106 -84t-138.5 -44.5t-182.5 -17.5l-249 -9q-22 1 -22 19zM390 246q149 13 206.5 58t78.5 161q25 136 47.5 354t22.5 357q0 82 -40 122 t-129 40q-48 0 -64 -3z" />
<glyph unicode="E" horiz-adv-x="905" d="M110 15l173 1513q2 12 7 17t19 6l548 19q25 -3 25 -27l-25 -207q-3 -25 -26 -27l-322 -9l-43 -372l308 11q26 -1 26 -26l-26 -204q-2 -13 -7 -18.5t-19 -6.5l-311 -12l-47 -410l383 13q26 -1 26 -26l-26 -207q-1 -13 -6.5 -18t-19.5 -8l-615 -20q-22 0 -22 19z" />
<glyph unicode="F" horiz-adv-x="890" d="M110 15l174 1513q2 12 7 17t19 6l548 23q25 -3 25 -27l-25 -207q-3 -26 -26 -27l-322 -11l-44 -384l316 11q26 -1 26 -26l-26 -204q-2 -13 -7 -18.5t-19 -6.5l-320 -11l-72 -631q-2 -13 -7.5 -18.5t-18.5 -6.5l-206 -11q-22 0 -22 19z" />
<glyph unicode="G" horiz-adv-x="959" d="M138 341q0 50 3.5 132t21.5 261.5t49 348.5q12 68 23 115.5t30.5 102.5t43 91.5t60 72.5t83 56.5t110.5 33.5t143 13q92 0 160 -11q12 -2 17 -3.5t8.5 -7.5t3.5 -17l-22 -186q-4 -26 -21 -26q-20 0 -73 8q-61 9 -95 9q-47 0 -79.5 -9.5t-61 -35t-47.5 -72.5t-32 -120 q-24 -135 -47 -366.5t-23 -354.5q0 -82 33 -124.5t82 -42.5q42 0 70 1l66 567q2 12 7 17.5t19 6.5l188 7q27 -1 27 -24l-84 -750q-4 -22 -27 -25q-133 -20 -324 -20q-81 0 -143 29.5t-97.5 80t-53.5 111.5t-18 131z" />
<glyph unicode="H" horiz-adv-x="1062" d="M110 15l172 1513q2 12 7 17t19 6l201 8q26 -1 26 -24l-73 -637l255 9l70 621q3 22 27 23l200 8q26 -1 26 -24l-171 -1507q-2 -13 -7 -18.5t-18 -6.5l-206 -7q-22 0 -22 19l74 657l-254 -9l-72 -635q-3 -24 -26 -25l-206 -7q-22 0 -22 19z" />
<glyph unicode="I" horiz-adv-x="557" d="M110 15l173 1513q2 12 7 17t19 6l200 7q26 -1 26 -24l-171 -1506q-3 -24 -26 -25l-206 -7q-22 0 -22 19z" />
<glyph unicode="J" horiz-adv-x="701" d="M0 13l24 195q5 24 25 24q96 0 152.5 22.5t79 60.5t29.5 101l126 1112q2 12 6.5 17t18.5 6l201 7q26 -2 26 -24l-123 -1096q-14 -129 -56.5 -217.5t-113.5 -138.5t-160 -71.5t-210 -21.5q-25 0 -25 24z" />
<glyph unicode="K" horiz-adv-x="978" d="M110 15l171 1513q2 12 6.5 17t18.5 6l201 7q26 -1 26 -24l-76 -673l289 666q10 23 32 24l209 7q26 -2 26 -21q0 -12 -7 -26l-323 -679l241 -800q1 -3 1 -11q0 -7 -8 -12t-18 -5l-215 -8q-17 1 -22 19l-215 749l-83 -736q-3 -24 -27 -25l-206 -7q-21 0 -21 19z" />
<glyph unicode="L" horiz-adv-x="885" d="M110 15l171 1513q2 12 6.5 17t18.5 6l201 7q26 -1 26 -24l-143 -1271l383 15q26 -1 26 -26l-26 -207q-3 -26 -26 -27l-616 -22q-21 0 -21 19z" />
<glyph unicode="M" horiz-adv-x="1363" d="M110 15l172 1513q2 12 6.5 17t19.5 6l252 9q24 -1 26 -24l91 -1204l347 1196q5 22 28 23l263 9q25 -1 25 -24l-170 -1508q-3 -24 -27 -25l-206 -7q-21 0 -21 19l195 1219l-358 -1207q-8 -23 -29 -24l-194 -7q-20 2 -22 19l-84 1197l-75 -1183q-2 -25 -26 -26l-191 -7 q-22 2 -22 19z" />
<glyph unicode="N" horiz-adv-x="1085" d="M110 15l173 1513q2 12 7 17t19 6l203 11q14 0 18.5 -5.5t7.5 -18.5l203 -1009l70 999q1 22 27 23l199 11q27 0 27 -24l-172 -1506q-2 -13 -7.5 -18.5t-18.5 -6.5l-198 -11q-17 0 -20 19l-210 1068l-74 -1055q-1 -24 -26 -25l-206 -7q-22 0 -22 19z" />
<glyph unicode="O" horiz-adv-x="1047" d="M138 348q0 137 19 345t58 397q19 91 38 153.5t53 130t78.5 108t114 66.5t159.5 26q163 0 249.5 -101t86.5 -264q0 -132 -19 -341.5t-57 -399.5q-18 -91 -37.5 -155.5t-53.5 -130.5t-78.5 -106t-113.5 -65.5t-158 -25.5q-167 0 -253 100t-86 263zM393 371 q0 -73 31.5 -111.5t79.5 -38.5q127 0 163 234q24 155 48 386t24 346q0 73 -30.5 112t-75.5 39q-66 0 -106 -55t-62 -180q-24 -138 -48 -374.5t-24 -357.5z" />
<glyph unicode="P" horiz-adv-x="1023" d="M110 15l173 1513q2 12 7 17t19 6q187 17 362 17q166 0 249.5 -83t83.5 -241q0 -177 -36 -311q-86 -333 -538 -334l-63 -567q-3 -24 -25 -25l-210 -11q-22 2 -22 19zM455 830q173 0 237 77q56 67 56 275q0 80 -43 118t-134 38q-43 0 -59 -3z" />
<glyph unicode="Q" horiz-adv-x="1047" d="M138 348q0 137 19 345t58 397q19 91 38 153.5t53 130t78.5 108t114 66.5t159.5 26q163 0 249.5 -101t86.5 -264q0 -132 -19 -341.5t-57 -399.5q-17 -84 -34.5 -144.5t-47 -123.5t-68 -104t-96 -70t-131.5 -37q0 -103 117 -103q51 0 114 10q57 9 76 9q23 0 23 -24 l-17 -149q-2 -20 -22 -26q-39 -9 -120 -18t-135 -9q-222 0 -222 178q0 62 25 139q-119 27 -180.5 121t-61.5 231zM393 371q0 -73 31.5 -111.5t79.5 -38.5q127 0 163 234q24 155 48 386t24 346q0 73 -30.5 112t-75.5 39q-66 0 -106 -55t-62 -180q-24 -138 -48 -374.5 t-24 -357.5z" />
<glyph unicode="R" horiz-adv-x="1032" d="M110 15l173 1505q2 18 9 24.5t27 7.5q178 16 326 16q182 0 271.5 -87.5t89.5 -236.5q0 -127 -33 -232.5t-109 -189.5t-190 -125l284 -661q3 -6 3 -12q0 -9 -8 -14.5t-19 -5.5l-225 -8q-15 1 -22 19l-251 636l-70 -623q-3 -24 -25 -25l-209 -7q-22 2 -22 19zM457 838 q66 4 118 27.5t84 58.5t53 82.5t29.5 95.5t8.5 101q0 66 -36.5 101.5t-105.5 35.5t-95 -5z" />
<glyph unicode="S" horiz-adv-x="714" d="M63 9l25 209q4 22 26 24q156 16 206 49.5t50 123.5q0 110 -70 331q-32 100 -47 153t-31.5 136t-16.5 145q0 106 35 183t100 122.5t149 67t190 21.5q27 0 27 -25l-27 -207q-2 -14 -7 -20t-18 -7q-102 -7 -148 -35t-46 -80q0 -94 84 -375q81 -270 81 -389q0 -451 -537 -451 q-25 0 -25 24z" />
<glyph unicode="T" horiz-adv-x="792" d="M153 1314l25 208q1 24 26 25l648 23q23 -1 23 -25l-26 -205q-2 -15 -6.5 -21t-18.5 -7l-194 -7l-146 -1277q-3 -24 -26 -25l-208 -7q-20 0 -20 19l147 1282l-199 -6q-25 1 -25 23z" />
<glyph unicode="U" horiz-adv-x="1063" d="M155 327q0 81 10 169l118 1032q2 13 6.5 17.5t18.5 5.5l202 7q25 -1 25 -24l-115 -1025q-14 -118 -14 -158q0 -60 28 -95t82 -35q72 0 105 63t49 202l117 1042q3 22 27 23l202 8q25 -1 25 -24l-115 -1026q-11 -100 -29.5 -176t-52 -144t-81 -111t-118.5 -68t-163 -25 q-152 0 -239.5 86.5t-87.5 255.5z" />
<glyph unicode="V" horiz-adv-x="918" d="M167 1527q0 23 27 24l208 7q22 0 22 -19l47 -1128l265 1116q3 13 7.5 18t16.5 6l207 8q22 0 22 -19l-439 -1512q-7 -24 -24 -24l-221 -8q-20 1 -22 25z" />
<glyph unicode="W" horiz-adv-x="1376" d="M187 1527q0 23 27 24l208 7q22 0 22 -19l14 -1175l254 1163q4 21 31 24l179 7q10 0 16 -5.5t6 -13.5l12 -1156l248 1144q4 13 8.5 18t15.5 6l189 7q20 -2 20 -19l-402 -1510q-4 -13 -8.5 -18t-13.5 -6l-231 -9q-22 1 -22 25l-9 937l-193 -930q-6 -24 -24 -24l-240 -8 q-21 1 -23 25z" />
<glyph unicode="X" horiz-adv-x="943" d="M15 15l363 831l-204 682q0 22 25 23l207 7q13 -1 17.5 -6.5t8.5 -17.5l133 -487l197 481q9 22 27 23l200 8q25 -1 25 -24l-349 -769l216 -734q1 -3 1 -9q0 -17 -25 -19l-213 -8q-15 1 -22 19l-142 540l-210 -523q-12 -28 -28 -29l-206 -7q-21 0 -21 19z" />
<glyph unicode="Y" horiz-adv-x="897" d="M152 1535q0 14 27 16l203 8q22 -1 26 -20l114 -571l205 560q8 22 25 23l206 7q12 -1 19.5 -8t7.5 -15l-373 -834l-77 -673q-3 -24 -26 -25l-206 -7q-22 0 -22 19l75 664z" />
<glyph unicode="Z" horiz-adv-x="869" d="M40 15l501 1290l-300 -10q-25 1 -25 22l25 211q3 21 26 23l608 23q24 -2 24 -27l-497 -1282l325 11q24 -2 24 -25l-24 -208q-2 -13 -7.5 -18.5t-18.5 -6.5l-639 -22q-22 0 -22 19z" />
<glyph unicode="[" horiz-adv-x="681" d="M112 -426l239 2125q3 23 25 24l423 14q26 -1 26 -26l-22 -180q-2 -13 -7 -19t-19 -7l-210 -7l-190 -1703l201 7q25 -1 25 -25l-21 -182q-2 -13 -7 -19t-19 -7l-422 -15q-22 0 -22 20z" />
<glyph unicode="\" horiz-adv-x="519" d="M62 1684q0 19 27 25l144 32q14 -1 18 -6t7 -20l351 -2065q0 -14 -22 -21l-151 -33q-12 0 -16.5 6t-7.5 21z" />
<glyph unicode="]" horiz-adv-x="681" d="M-94 -412l22 180q2 13 7 19t19 7l210 7l190 1703l-201 -7q-25 1 -25 25l21 182q2 13 7 19t19 7l422 15q22 0 22 -20l-239 -2125q-3 -23 -25 -24l-423 -14q-26 1 -26 26z" />
<glyph unicode="^" d="M65 805q0 8 13 21l399 476q7 9 18 13q12 4 86 4q9 0 16 -6l370 -492q15 -13 15 -20q0 -6 -8 -16l-137 -119q-10 -11 -20 -11q-9 0 -14 7l-279 384l-296 -375q-6 -6 -13 -6q-9 0 -15 5l-129 122q-6 6 -6 13z" />
<glyph unicode="_" horiz-adv-x="1132" d="M-135 -277l21 180q1 9 2.5 13t7.5 8t16 4l1197 44q23 -1 23 -27l-21 -178q-2 -14 -7 -20t-19 -7l-1195 -43q-14 1 -19.5 7t-5.5 19z" />
<glyph unicode="`" horiz-adv-x="877" d="M265 1649q0 24 23 25l189 7q25 -1 32 -28l103 -401q0 -28 -24 -29l-117 -4q-24 0 -33 22z" />
<glyph unicode="a" horiz-adv-x="1054" d="M131 398q0 198 30 354q15 76 32 136.5t45.5 124.5t64.5 107t89 70.5t118 27.5q93 0 142 -44.5t82 -131.5l12 136q1 12 6 17.5t19 6.5l196 7q26 -2 26 -26l-130 -1153q-3 -26 -26 -27l-202 -7q-21 2 -21 19l19 136q-46 -78 -100.5 -120t-129.5 -42q-61 0 -109 23.5 t-78.5 62t-50 92.5t-27 110.5t-7.5 120.5zM383 458q0 -239 128 -239q56 0 91 51.5t58 187.5q28 174 28 287q0 29 -1 48t-4 50.5t-11 53t-21 43t-34.5 32.5t-50.5 11q-57 0 -91 -51.5t-63 -187.5q-8 -36 -18.5 -131t-10.5 -155z" />
<glyph unicode="b" horiz-adv-x="1060" d="M106 15l186 1643q2 14 6.5 20t18.5 7l196 7q26 -3 26 -27l-84 -639q50 93 107.5 142.5t139.5 49.5q61 0 109 -23.5t78.5 -62t50 -92.5t27 -110.5t7.5 -120.5q0 -198 -30 -354q-15 -76 -32 -136.5t-45.5 -124.5t-64.5 -107t-89 -70.5t-118 -27.5q-96 0 -145 46.5 t-84 140.5l-11 -146q-2 -26 -25 -27l-202 -7q-22 2 -22 19zM417 462q0 -29 1 -48t4 -50.5t11 -53t21 -43t34.5 -32.5t50.5 -11q57 0 91 51.5t63 187.5q8 36 18.5 131t10.5 155q0 239 -128 239q-56 0 -91 -51.5t-58 -187.5q-28 -174 -28 -287z" />
<glyph unicode="c" horiz-adv-x="886" d="M131 429q0 163 23 297q16 89 37.5 159t57.5 134.5t84 106.5t118.5 67t159.5 25q116 0 212 -31q22 -8 22 -38l-23 -181q-2 -20 -30 -20q-23 0 -46 10q-97 43 -156 43q-69 0 -107 -53t-72 -199q-12 -52 -22 -139.5t-10 -151.5q0 -246 127 -246q92 0 158 27q48 20 67 20 q15 0 24 -8t9 -22l-21 -176q-1 -10 -4 -15.5t-6 -7.5t-12 -6q-121 -35 -254 -35q-80 0 -141.5 27t-97.5 69.5t-58.5 102.5t-30.5 117.5t-8 123.5z" />
<glyph unicode="d" horiz-adv-x="1045" d="M131 398q0 198 30 354q15 76 32 136.5t45.5 124.5t64.5 107t89 70.5t118 27.5q92 0 141 -44t83 -131l57 615q3 26 27 27l196 7q25 -3 25 -27l-185 -1635q-3 -26 -26 -27l-201 -7q-21 2 -21 19l17 121q-44 -71 -96.5 -109t-123.5 -38q-61 0 -109 23.5t-78.5 62t-50 92.5 t-27 110.5t-7.5 120.5zM383 458q0 -239 128 -239q56 0 91 51.5t58 187.5q28 174 28 287q0 29 -1 48t-4 50.5t-11 53t-21 43t-34.5 32.5t-50.5 11q-57 0 -91 -51.5t-63 -187.5q-8 -36 -18.5 -131t-10.5 -155z" />
<glyph unicode="e" horiz-adv-x="996" d="M131 429q0 139 22 289q73 500 454 500q147 0 225 -101t78 -270q0 -153 -20 -305q-3 -27 -31 -28l-494 -17q-1 -15 -1 -40q0 -113 39.5 -179t109.5 -66q90 0 169 27q58 20 68 20q14 0 23 -8t9 -22l-20 -176q-1 -15 -5.5 -19.5t-17.5 -9.5q-121 -35 -265 -35q-80 0 -142 27 t-99.5 69.5t-61 102t-32 118t-8.5 123.5zM380 684l261 13q17 1 22 6t7 21q8 56 8 100q0 29 -4.5 56.5t-15 56.5t-32.5 46.5t-53 17.5q-49 0 -81 -19.5t-59 -76t-44 -157.5z" />
<glyph unicode="f" horiz-adv-x="693" d="M112 1017l27 161q1 12 6 17.5t20 6.5l86 3l14 122q8 70 22 123.5t42 104.5t69 84t105.5 53t148.5 20q107 0 187 -24q30 -10 30 -31l-26 -175q-4 -24 -19 -24q-9 0 -33 8q-74 21 -143 21q-74 0 -108.5 -58t-48.5 -190l-3 -30l222 8q24 -1 24 -26l-28 -159q-4 -24 -25 -25 l-214 -8l-98 -969q-2 -14 -7 -20t-19 -7l-202 -7q-22 2 -22 19l109 982l-91 -5q-25 1 -25 25z" />
<glyph unicode="g" horiz-adv-x="1048" d="M131 398q0 198 30 354q15 76 32 136.5t45.5 124.5t64.5 107t89 70.5t118 27.5q92 0 141 -44t83 -131l10 134q2 24 26 25l202 7q21 -3 21 -21l-136 -1213q-9 -83 -28 -150.5t-54 -129.5t-85 -103.5t-124.5 -66t-168.5 -24.5q-117 0 -237 27q-17 3 -23 8.5t-6 20.5l20 181 q3 27 22 27q13 0 55 -14q78 -26 164 -26q62 0 103.5 13.5t67 45t38.5 73.5t21 107l26 215q-50 -92 -106.5 -141t-138.5 -49q-61 0 -109 23.5t-78.5 62t-50 92.5t-27 110.5t-7.5 120.5zM383 458q0 -239 128 -239q56 0 91 51.5t58 187.5q28 174 28 287q0 29 -1 48t-4 50.5 t-11 53t-21 43t-34.5 32.5t-50.5 11q-57 0 -91 -51.5t-63 -187.5q-8 -36 -18.5 -131t-10.5 -155z" />
<glyph unicode="h" horiz-adv-x="1067" d="M106 15l186 1643q2 14 6.5 20t18.5 7l196 7q26 -3 26 -27l-63 -561q135 114 275 114q60 0 104.5 -24t70 -66.5t37.5 -93t12 -110.5q0 -29 -3 -56l-96 -838q-2 -14 -7 -20t-18 -7l-202 -7q-22 2 -22 19l91 792q3 26 3 47q0 82 -38.5 111.5t-102.5 29.5q-55 0 -119 -25 l-106 -940q-2 -14 -7 -20t-18 -7l-202 -7q-22 2 -22 19z" />
<glyph unicode="i" horiz-adv-x="546" d="M106 15l132 1163q2 12 7 17.5t18 6.5l195 7q27 -2 27 -26l-130 -1153q-2 -14 -7 -20t-19 -7l-201 -7q-22 2 -22 19zM238 1453q0 66 49.5 114.5t116.5 48.5q57 0 95.5 -39t38.5 -95q0 -67 -51 -115.5t-118 -48.5q-57 0 -94 39t-37 96z" />
<glyph unicode="j" horiz-adv-x="544" d="M-145 -475l23 195q2 24 20 24q92 0 140 40.5t59 124.5l139 1269q2 12 7 17.5t18 6.5l195 7q27 -2 27 -26l-138 -1222q-27 -238 -138 -349t-328 -111q-24 0 -24 24zM236 1453q0 66 49.5 114.5t116.5 48.5q57 0 95.5 -39t38.5 -95q0 -67 -51 -115.5t-118 -48.5 q-57 0 -94 39t-37 96z" />
<glyph unicode="k" horiz-adv-x="981" d="M107 15l185 1643q2 14 7 20t19 7l196 7q26 -3 26 -27l-114 -1012l266 524q12 24 33 25l207 7q10 -1 17.5 -7.5t7.5 -15.5q0 -11 -4 -20l-299 -519l228 -614q3 -7 3 -12q0 -8 -8.5 -13t-18.5 -5l-213 -7q-15 1 -22 19l-204 575l-63 -560q-2 -14 -7 -20t-19 -7l-201 -7 q-22 2 -22 19z" />
<glyph unicode="l" horiz-adv-x="545" d="M106 15l185 1643q2 14 7 20t19 7l196 7q26 -3 26 -27l-184 -1634q-2 -14 -7 -20t-19 -7l-201 -8q-22 2 -22 19z" />
<glyph unicode="m" horiz-adv-x="1567" d="M106 15l132 1163q2 12 7 17.5t18 6.5l195 7q27 -1 27 -26l-11 -93q147 128 277 128q141 0 195 -131q150 131 291 131q61 0 108 -24t74.5 -66t41.5 -93.5t14 -110.5q0 -29 -3 -56l-96 -838q-2 -14 -7 -20t-18 -7l-202 -7q-22 2 -22 19l91 792q4 34 4 47q0 82 -39 111.5 t-104 29.5q-50 0 -107 -21q3 -24 3 -50q0 -29 -3 -56l-96 -838q-2 -14 -7 -20t-18 -7l-202 -7q-22 2 -22 19l91 792q3 26 3 47q0 82 -38.5 111.5t-102.5 29.5q-55 0 -119 -25l-106 -939q-2 -14 -7 -20t-18 -7l-202 -8q-22 2 -22 19z" />
<glyph unicode="n" horiz-adv-x="1067" d="M106 15l132 1163q2 12 7 17.5t18 6.5l196 7q27 -1 27 -26l-11 -92q144 127 276 127q60 0 104.5 -24t70 -66.5t37.5 -93t12 -110.5q0 -29 -3 -56l-96 -838q-2 -14 -7 -20t-18 -7l-202 -7q-22 2 -22 19l91 792q3 26 3 47q0 82 -38.5 111.5t-102.5 29.5q-54 0 -118 -25 l-107 -940q-2 -14 -7 -20t-18 -7l-202 -7q-22 2 -22 19z" />
<glyph unicode="o" horiz-adv-x="1023" d="M131 406q0 95 30 312q12 89 30 158.5t51 136t78 110t113 69.5t155 26q86 0 149.5 -22.5t101 -59.5t60.5 -94t30.5 -114.5t7.5 -132.5q0 -114 -28 -312q-13 -88 -31 -156.5t-50.5 -134t-77.5 -108.5t-113.5 -69t-156.5 -26q-184 0 -266.5 106.5t-82.5 310.5zM371 359 q0 -170 122 -170q58 0 96.5 55.5t60.5 182.5q11 53 28.5 198.5t17.5 215.5q0 170 -123 170q-58 0 -95.5 -55t-60.5 -183q-46 -260 -46 -414z" />
<glyph unicode="p" horiz-adv-x="1055" d="M52 -462l186 1639q3 24 25 25l201 7q22 -2 22 -21l-20 -133q46 79 100.5 121t130.5 42q61 0 109 -23.5t78.5 -62t50 -92.5t27 -110.5t7.5 -120.5q0 -198 -30 -354q-15 -76 -32 -136.5t-45.5 -124.5t-64.5 -107t-89 -70.5t-118 -27.5q-97 0 -146 47t-84 142l-59 -633 q-1 -24 -26 -25l-196 -7q-27 1 -27 25zM412 462q0 -30 1 -48.5t4 -50.5t11 -53t21 -42.5t35 -32.5t51 -11q56 0 89.5 51t63.5 188q8 38 19 132.5t11 153.5q0 238 -128 238q-58 0 -92.5 -51t-56.5 -187q-29 -180 -29 -287z" />
<glyph unicode="q" horiz-adv-x="1053" d="M131 398q0 198 30 354q15 76 32 136.5t45.5 124.5t64.5 107t89 70.5t118 27.5q92 0 141 -44t83 -131l10 133q2 24 26 25l201 7q21 -3 21 -21l-183 -1642q-2 -13 -7.5 -18.5t-19.5 -6.5l-196 -7q-26 2 -26 25l82 630q-47 -86 -103.5 -132.5t-135.5 -46.5q-61 0 -109 23.5 t-78.5 62t-50 92.5t-27 110.5t-7.5 120.5zM383 458q0 -239 128 -239q56 0 91 51.5t58 187.5q28 174 28 287q0 29 -1 48t-4 50.5t-11 53t-21 43t-34.5 32.5t-50.5 11q-57 0 -91 -51.5t-63 -187.5q-8 -36 -18.5 -131t-10.5 -155z" />
<glyph unicode="r" horiz-adv-x="794" d="M106 15l132 1163q2 12 7 17.5t18 6.5l195 7q27 -1 27 -26l-12 -103q64 65 124 101.5t138 36.5q43 0 75 -5q21 -4 21 -28q0 -69 -23 -205q-5 -26 -29 -26q-18 0 -46 5q-38 6 -61 6q-130 0 -218 -52l-99 -882q-2 -14 -7 -20t-18 -7l-202 -8q-22 2 -22 19z" />
<glyph unicode="s" horiz-adv-x="747" d="M85 31l26 185q2 25 18 25q15 0 49 -9q54 -13 87 -13q122 0 122 97q0 37 -14.5 82.5t-29.5 76t-45 86.5q-39 72 -58 110.5t-39.5 106.5t-20.5 128q0 140 83.5 226t243.5 86q103 0 161 -10q25 -4 25 -26l-22 -178q0 -28 -18 -28q-32 0 -65 3q-32 2 -48 2q-48 0 -75.5 -22 t-27.5 -62q0 -43 15 -93t32 -84.5t48 -90.5q39 -70 58 -107.5t38.5 -100.5t19.5 -118q0 -151 -88.5 -232.5t-268.5 -81.5q-89 0 -181 16q-14 3 -19.5 8.5t-5.5 17.5z" />
<glyph unicode="t" horiz-adv-x="745" d="M116 1017l27 161q3 23 26 24l95 3q13 122 25 211q2 13 7 18.5t19 6.5l191 7q27 -2 27 -25q-19 -111 -32 -213l233 8q24 -1 24 -26l-28 -159q-4 -24 -25 -25l-229 -9q-68 -612 -68 -678q0 -60 27.5 -87t72.5 -27q51 0 99 16t60 16q21 0 21 -26l-21 -175q-2 -15 -7.5 -22 t-24.5 -11q-68 -16 -173 -16q-154 0 -228 71.5t-74 218.5q0 137 79 717l-98 -4q-25 1 -25 25z" />
<glyph unicode="u" horiz-adv-x="1067" d="M139 283q0 21 4 57l95 837q3 24 25 25l202 8q21 -2 21 -21l-90 -789q-3 -26 -3 -48q0 -84 32.5 -112t108.5 -28q55 0 119 25l106 940q3 24 25 25l202 7q21 -2 21 -21l-130 -1157q-2 -14 -7.5 -19.5t-19.5 -6.5l-195 -9q-26 1 -26 25l8 77q-121 -109 -274 -109 q-115 0 -169.5 84t-54.5 210z" />
<glyph unicode="v" horiz-adv-x="927" d="M141 1178q3 23 25 24l197 7q23 -1 25 -26l78 -856l229 851q6 23 27 24l210 7q25 -2 25 -26l-407 -1153q-5 -14 -10 -20t-16 -7l-205 -7q-19 1 -22 19z" />
<glyph unicode="w" horiz-adv-x="1304" d="M151 1178q3 23 25 24l186 7q23 -1 25 -26l33 -869l203 864q4 21 27 24l164 6q25 -1 27 -26l50 -875l207 871q6 23 26 24l184 7q26 -2 26 -26l-359 -1153q-4 -14 -9 -20t-17 -7l-201 -7q-17 1 -22 19l-40 694l-185 -679q-6 -26 -25 -27l-201 -7q-17 1 -22 19z" />
<glyph unicode="x" horiz-adv-x="945" d="M23 21l333 639l-178 518q0 23 26 24l197 7q18 -1 26 -26l107 -348l153 343q10 23 27 24l194 7q26 -2 26 -26l-295 -587l187 -567q-3 -25 -25 -26l-197 -7q-19 1 -26 25l-122 401l-186 -393q-11 -26 -26 -26l-196 -7q-25 2 -25 25z" />
<glyph unicode="y" horiz-adv-x="940" d="M141 -467l172 485l-156 1160q0 23 25 24l197 7q23 -1 25 -26l76 -841l243 836q6 23 26 24l196 7q25 -2 25 -26l-577 -1637q-8 -25 -29 -26l-201 -7q-22 1 -22 20z" />
<glyph unicode="z" horiz-adv-x="863" d="M37 18q0 3 2 9l468 949l-313 -12q-25 1 -25 24l21 190q3 23 27 24l612 20q27 -1 27 -27l-452 -949l323 16q25 -1 25 -26l-23 -190q-2 -14 -7 -20t-19 -7l-644 -23q-11 1 -16.5 7.5t-5.5 14.5z" />
<glyph unicode="{" horiz-adv-x="762" d="M167 576l15 147q3 21 27 25q63 0 107 37.5t52 105.5q42 375 93 579q68 273 429 273q16 0 22.5 -6t6.5 -24l-21 -175q-5 -25 -21 -25q-177 0 -203 -150q-48 -267 -73 -490q-22 -199 -227 -211q97 -26 133 -82t36 -181q0 -62 -16 -204q-13 -114 -13 -210q0 -176 127 -176 q22 0 22 -25l-24 -185q-2 -9 -4 -14t-7 -8.5t-15 -3.5q-168 0 -255 97.5t-87 264.5q0 71 20 238q18 155 18 212q0 83 -27.5 124.5t-90.5 41.5q-24 0 -24 25z" />
<glyph unicode="|" horiz-adv-x="538" d="M81 -448l236 2106q2 14 7 20t19 7l129 5q26 -2 26 -27l-234 -2099q-3 -25 -27 -27l-134 -5q-22 1 -22 20z" />
<glyph unicode="}" horiz-adv-x="762" d="M-102 -397l21 175q5 25 21 25q177 0 203 150q48 267 73 490q22 199 227 211q-97 26 -133 82t-36 181q0 62 16 204q13 114 13 210q0 176 -127 176q-22 0 -22 25l24 185q2 9 4 14t7 8.5t15 3.5q168 0 255 -97.5t87 -264.5q0 -71 -20 -238q-18 -155 -18 -212 q0 -83 27.5 -124.5t90.5 -41.5q24 0 24 -25l-15 -147q-3 -21 -27 -25q-63 0 -107 -37.5t-52 -105.5q-42 -375 -93 -579q-68 -273 -429 -273q-16 0 -22.5 6t-6.5 24z" />
<glyph unicode="~" horiz-adv-x="1031" d="M127 835q3 23 23 42q40 39 103.5 75t133.5 36q67 0 199 -13q126 -13 188 -13q36 0 99 26q67 27 76 27q23 0 25 -18l15 -117q-1 -24 -22 -43q-121 -111 -236 -111q-69 0 -202 15q-110 13 -186 13q-38 0 -105 -28q-61 -25 -70 -25q-25 0 -26 16z" />
<glyph unicode="&#xa1;" horiz-adv-x="585" d="M81 -375l149 1119q3 25 25 26l175 7q22 -1 22 -21l-107 -1125q-1 -21 -26 -24l-213 -7q-25 1 -25 25zM218 1045q0 71 53 121.5t123 50.5q60 0 100.5 -41.5t40.5 -101.5q0 -69 -53 -120t-124 -51q-60 0 -100 41t-40 101z" />
<glyph unicode="&#xa2;" d="M141 429q0 163 23 297q16 89 37.5 159t57.5 134.5t84 106.5t118.5 67t159.5 25q116 0 212 -31q22 -8 22 -38l-23 -181q-2 -20 -30 -20q-23 0 -46 10q-97 43 -156 43q-69 0 -107 -53t-72 -199q-12 -52 -22 -139.5t-10 -151.5q0 -246 127 -246q92 0 158 27q48 20 67 20 q15 0 24 -8t9 -22l-21 -176q-1 -10 -4 -15.5t-6 -7.5t-12 -6q-121 -35 -254 -35q-80 0 -141.5 27t-97.5 69.5t-58.5 102.5t-30.5 117.5t-8 123.5zM423 -191l22 206q1 13 7 18t18 7l199 133l-42 -358q-2 -26 -25 -26l-154 -5q-24 1 -25 25zM533 1066l33 296q1 14 7 19.5 t19 6.5l152 5q26 0 26 -23l-32 -284q-1 -16 -6.5 -21t-18.5 -6l-154 -18q-23 0 -26 25z" />
<glyph unicode="&#xa3;" d="M82 20l23 203q2 13 6.5 18.5t19.5 6.5l63 3l43 380l-69 -3q-14 1 -19.5 7t-5.5 19l24 203q1 9 2.5 13.5t7 8t16.5 3.5l72 2l20 177q8 67 16.5 117.5t24 106.5t36.5 96.5t53.5 78.5t74 62t99 38t128.5 14q95 0 193 -12q18 -3 23.5 -7.5t5.5 -21.5l-23 -195q-3 -26 -20 -26 q-13 0 -64 8q-61 9 -100 9q-64 0 -99.5 -17.5t-59 -70.5t-34.5 -154l-21 -194l213 7q23 -1 23 -26l-25 -202q-3 -25 -25 -26l-213 -7l-41 -380l384 14q23 -1 23 -26l-23 -202q-3 -25 -25 -26l-702 -23q-25 1 -25 24z" />
<glyph unicode="&#xa4;" d="M3 285q0 4 4 12l153 167q-36 88 -36 209q0 205 99 344l-109 162q-10 13 -10 21q0 6 8 13l128 88q16 9 22 9q11 0 15 -6l105 -156q71 30 150 30q120 0 204 -59l134 147q10 15 20 15t15 -4l108 -100q13 -14 13 -24q0 -9 -3 -12l-166 -182l-3 2q34 -87 34 -201 q0 -178 -74 -308l137 -200q9 -13 9 -21q0 -11 -6 -15l-128 -89q-13 -8 -22 -8q-10 0 -14 5l-123 179q-85 -47 -188 -47q-113 0 -195 52l-124 -137q-13 -13 -21 -13q-4 0 -14 4l-109 100q-13 13 -13 23zM335 693q0 -235 163 -235q85 0 131 80t46 200q0 237 -162 237 q-85 0 -131.5 -80.5t-46.5 -201.5z" />
<glyph unicode="&#xa5;" d="M119 261l20 179q1 9 2.5 13.5t7.5 8.5t16 4l655 24q23 -1 23 -25l-21 -180q-3 -24 -25 -25l-654 -25q-24 1 -24 26zM156 590l20 179q1 9 2.5 13.5t7.5 8.5t16 4l655 24q23 -1 23 -25l-21 -180q-3 -24 -25 -25l-654 -25q-24 1 -24 26zM182 1535q0 14 27 16l203 8 q22 -1 26 -20l114 -571l205 560q8 22 25 23l206 7q12 -1 19.5 -8t7.5 -15l-373 -834l-77 -673q-3 -24 -26 -25l-206 -7q-22 0 -22 19l75 664z" />
<glyph unicode="&#xa6;" horiz-adv-x="538" d="M81 -448l98 875q2 13 7.5 18.5t19.5 6.5l129 6q26 -2 26 -27l-97 -867q-3 -25 -27 -27l-134 -5q-22 1 -22 20zM218 784l99 874q2 14 7 20t19 7l129 5q26 -2 26 -27l-98 -868q-3 -23 -25 -25l-135 -6q-22 3 -22 20z" />
<glyph unicode="&#xa7;" horiz-adv-x="1058" d="M134 -331l24 196q2 25 16 25q26 0 56 -9q46 -13 71 -13q57 0 83 35t26 87q0 42 -20.5 95.5t-41 89t-63.5 104.5q-47 75 -72 119t-49.5 112.5t-24.5 126.5q0 164 100.5 261.5t261.5 98.5q-81 185 -81 305q0 138 87 222.5t257 84.5q78 0 112.5 -7.5t34.5 -27.5l-17 -199 q-2 -29 -19 -29q-29 0 -48 2q-33 3 -56 3q-38 0 -59 -14t-21 -51q0 -102 110 -358q44 -103 65.5 -157t43.5 -126.5t22 -114.5q0 -164 -79.5 -255.5t-212.5 -110.5q46 -95 46 -172q0 -172 -99 -269t-278 -97q-59 0 -117 9t-58 34zM388 669q0 -44 22 -100t45.5 -96.5 t68.5 -110.5q17 -4 37 -4q50 0 87.5 41t37.5 114q0 86 -82 265q-75 5 -93 5q-53 0 -88 -30.5t-35 -83.5z" />
<glyph unicode="&#xa8;" horiz-adv-x="877" d="M106 1435q0 57 44 100t103 43q50 0 83.5 -34.5t33.5 -85.5q0 -57 -44.5 -99.5t-103.5 -42.5q-49 0 -82.5 34.5t-33.5 84.5zM505 1436q0 58 43.5 100t102.5 42q50 0 84.5 -34.5t34.5 -85.5q0 -57 -45.5 -99.5t-103.5 -42.5q-49 0 -82.5 35t-33.5 85z" />
<glyph unicode="&#xa9;" horiz-adv-x="1935" d="M211 750q0 262 109 472.5t309.5 332t455.5 121.5q163 0 302 -59.5t233.5 -162t148 -244t53.5 -302.5q0 -262 -109 -472t-309.5 -330.5t-456.5 -120.5q-218 0 -386.5 100.5t-259 274t-90.5 390.5zM411 769q0 -169 66 -304t193.5 -214.5t295.5 -79.5q196 0 346.5 94.5 t230.5 257t80 365.5q0 168 -66 303.5t-193.5 216t-295.5 80.5q-196 0 -346.5 -94.5t-230.5 -257.5t-80 -367zM712 528q0 233 50 518q11 64 26 111.5t41.5 93t64 74t94.5 45.5t131 17q72 0 109 -7q8 -1 12 -2.5t7.5 -6t3.5 -13.5l-18 -140q-1 -17 -15 -17t-39 4q-49 7 -74 7 q-64 0 -98 -34.5t-51 -133.5q-17 -97 -33 -247t-16 -233q0 -101 88 -101q24 0 105 11q40 6 54 6q15 0 15 -17l-16 -143q-1 -8 -4.5 -11.5t-14.5 -5.5q-106 -22 -180 -22q-116 0 -179 68t-63 179z" />
<glyph unicode="&#xaa;" horiz-adv-x="903" d="M193 1100q0 112 25 233q57 283 261 283q55 0 89 -34.5t58 -99.5l8 94q1 23 25 24l174 6q19 0 19 -25l-79 -718q-3 -26 -26 -27l-172 -7q-22 2 -22 20l10 77q-31 -61 -67.5 -91t-87.5 -30q-108 0 -161.5 81.5t-53.5 213.5zM406 1114q0 -22 3.5 -44.5t12.5 -47t28 -39.5 t45 -15q35 0 57 31t36 115q18 112 18 190q0 27 -1.5 46t-7.5 45.5t-21 40.5t-39 14q-86 0 -112 -147q-5 -24 -12 -87t-7 -102z" />
<glyph unicode="&#xab;" horiz-adv-x="1210" d="M185 572q0 10 6 18l307 393q19 25 43 26l176 6q25 -1 25 -26l-286 -398l163 -408q0 -14 -5 -20t-20 -7l-165 -6q-22 1 -33 21l-208 390q-3 7 -3 11zM658 572q0 10 6 18l307 393q19 25 43 26l176 6q25 -1 25 -26l-286 -398l163 -408q0 -14 -5 -20t-20 -7l-165 -6 q-22 1 -33 21l-208 390q-3 7 -3 11z" />
<glyph unicode="&#xac;" d="M155 660l20 179q1 9 2.5 13.5t7 8t16.5 4.5l653 24q25 -1 25 -25l-43 -389q-3 -24 -26 -25l-184 -6q-21 3 -21 21l21 187l-447 -18q-24 1 -24 26z" />
<glyph unicode="&#xad;" horiz-adv-x="896" d="M120 660l20 179q1 9 2.5 13.5t7.5 8.5t16 4l655 24q23 -1 23 -25l-21 -180q-3 -24 -25 -25l-654 -25q-24 1 -24 26z" />
<glyph unicode="&#xae;" horiz-adv-x="1935" d="M211 750q0 262 109 472.5t309.5 332t455.5 121.5q163 0 302 -59.5t233.5 -162t148 -244t53.5 -302.5q0 -262 -109 -472t-309.5 -330.5t-456.5 -120.5q-218 0 -386.5 100.5t-259 274t-90.5 390.5zM411 769q0 -169 66 -304t193.5 -214.5t295.5 -79.5q196 0 346.5 94.5 t230.5 257t80 365.5q0 168 -66 303.5t-193.5 216t-295.5 80.5q-196 0 -346.5 -94.5t-230.5 -257.5t-80 -367zM694 315l118 1029q1 12 5.5 15.5t19.5 8.5q149 22 226 22q250 0 250 -278q0 -253 -204 -331l196 -453q0 -18 -19 -19l-178 -7q-12 1 -15 13l-155 391l-44 -379 q-2 -17 -18 -18l-168 -7q-14 2 -14 13zM960 893q91 9 124 59t33 162q0 46 -17 67.5t-61 21.5q-25 0 -43 -3z" />
<glyph unicode="&#xaf;" horiz-adv-x="877" d="M94 1415l16 135q1 9 2.5 13.5t7.5 8.5t16 4l624 22q23 -1 23 -25l-16 -135q-2 -14 -7.5 -19.5t-19.5 -6.5l-622 -21q-24 1 -24 24z" />
<glyph unicode="&#xb0;" horiz-adv-x="840" d="M184 1236q0 169 87.5 277.5t234.5 108.5q139 0 210 -86t71 -232q0 -172 -87 -279t-235 -107q-139 0 -210 86t-71 232zM355 1251q0 -80 27 -123.5t97 -43.5q67 0 101.5 56.5t34.5 148.5q0 79 -27.5 123.5t-96.5 44.5q-67 0 -101.5 -56t-34.5 -150z" />
<glyph unicode="&#xb1;" d="M104 146l20 179q1 9 2.5 13.5t7.5 8.5t16 4l655 24q23 -1 23 -25l-21 -180q-3 -24 -25 -25l-654 -25q-24 1 -24 26zM172 747l21 179q1 9 2.5 13.5t7.5 8.5t16 4l212 11l25 224q2 13 7.5 18.5t19.5 6.5l176 6q27 -2 27 -25l-25 -218l212 11q25 -1 25 -25l-23 -180 q-3 -24 -24 -25l-215 -12l-28 -248q-3 -25 -26 -26l-183 -6q-22 2 -22 21l28 247l-208 -11q-25 1 -25 26z" />
<glyph unicode="&#xb2;" horiz-adv-x="690" d="M131 865q0 12 6 58t9 61q9 53 59.5 113.5t131.5 136.5q72 66 108.5 107.5t36.5 67.5q0 30 -25.5 46.5t-64.5 16.5q-38 0 -101 -13q-57 -12 -82 -12q-22 0 -22 28l17 142q2 13 6.5 18t18.5 9q100 26 210 26q113 0 184 -57.5t71 -175.5q0 -38 -10.5 -71t-35 -66.5t-46 -57 t-61.5 -62.5q-79 -77 -125 -134l220 8q24 -1 24 -29l-15 -142q-2 -23 -27 -25l-461 -16q-26 1 -26 23z" />
<glyph unicode="&#xb3;" horiz-adv-x="690" d="M139 894l14 124q0 1 1 4q2 17 11 19q4 1 9 1q18 0 71 -11q70 -15 128 -15q45 0 72.5 21.5t27.5 64.5q0 47 -29 63t-88 16h-50q-22 0 -22 27l12 73q3 22 25 25q94 14 127.5 36.5t33.5 66.5q0 30 -25.5 46.5t-64.5 16.5q-37 0 -96 -13q-63 -14 -87 -14q-22 0 -22 28l17 142 q1 13 6 17.5t19 9.5q91 28 210 28q256 0 256 -186q0 -182 -207 -226q99 0 148 -46t49 -127q0 -110 -86 -177t-230 -67q-46 0 -108.5 8t-91.5 16q-3 1 -8 2.5t-7 2t-5 2t-4.5 3t-3 4t-2 6.5t-0.5 9z" />
<glyph unicode="&#xb4;" horiz-adv-x="877" d="M247 1246l135 412q9 26 33 27l189 7q26 -2 26 -27l-192 -412q-10 -20 -35 -22l-134 -5q-22 2 -22 20z" />
<glyph unicode="&#xb6;" horiz-adv-x="1170" d="M239 927q0 124 28 254.5t85 228.5q63 111 164 158.5t260 47.5q181 0 341 -41q16 -5 21 -10.5t5 -16.5l-19 -157q-3 -26 -26 -28l-32 -2q-22 -1 -25 -25l-137 -1199q-15 -133 -57 -224.5t-113 -143.5t-160 -74.5t-210 -22.5q-25 0 -25 24l24 201q6 24 26 24q95 0 151.5 24 t79.5 64t30 105l51 468q-31 -1 -107 -1q-167 0 -261 92t-94 254zM507 979q0 -85 49.5 -139.5t136.5 -54.5h31l65 591q-90 0 -129.5 -14t-75.5 -59q-33 -40 -55 -140.5t-22 -183.5z" />
<glyph unicode="&#xb7;" horiz-adv-x="585" d="M173 699q0 69 52.5 120t123.5 51q60 0 100 -41t40 -101q0 -70 -53 -121t-124 -51q-60 0 -99.5 41.5t-39.5 101.5z" />
<glyph unicode="&#xb8;" horiz-adv-x="877" d="M207 -419q0 16 10 91q3 16 21 16q11 0 50 -13q63 -21 107 -21q117 0 117 79q0 37 -17 54.5t-43 17.5q-23 0 -65 -6q-33 -5 -49 -5q-29 0 -51.5 24t-22.5 54q0 28 58 199l90 -10l-37 -148q82 20 139 20q64 0 109.5 -43.5t45.5 -129.5q0 -122 -67.5 -182.5t-185.5 -60.5 q-50 0 -106.5 11t-84.5 24q-18 8 -18 29z" />
<glyph unicode="&#xb9;" horiz-adv-x="690" d="M157 869l16 143q2 13 6.5 18.5t19.5 6.5l106 4l45 407l-125 -6q-25 1 -25 26q0 8 17.5 42.5t40.5 76.5t25 46q13 23 36 24l251 9q19 0 19 -27l-66 -592l104 4q24 -1 24 -26l-17 -142q-3 -25 -25 -26l-427 -15q-25 3 -25 27z" />
<glyph unicode="&#xba;" horiz-adv-x="883" d="M193 1100q0 105 25 233q11 55 32 101t57.5 89.5t96.5 68t138 24.5q132 0 205 -77.5t73 -218.5q0 -105 -25 -232q-13 -66 -34 -114t-57 -88t-93.5 -60.5t-136.5 -20.5q-136 0 -208.5 75.5t-72.5 219.5zM407 1116q0 -146 80 -146q47 0 67 35t35 113q18 97 18 188 q0 147 -75 147q-35 0 -58 -24t-32 -52t-16 -71q-19 -116 -19 -190z" />
<glyph unicode="&#xbb;" horiz-adv-x="1210" d="M20 181l286 398l-163 408q0 14 5 20t20 7l165 6q22 -1 33 -21l208 -390q3 -7 3 -11q0 -10 -6 -18l-307 -393q-19 -25 -43 -26l-176 -6q-25 1 -25 26zM493 181l286 398l-163 408q0 14 5 20t20 7l165 6q22 -1 33 -21l208 -390q3 -8 3 -11q0 -10 -6 -18l-307 -393 q-19 -25 -43 -26l-176 -6q-25 1 -25 26z" />
<glyph unicode="&#xbc;" horiz-adv-x="1452" d="M86 813l16 143q2 13 6.5 18.5t19.5 6.5l106 4l45 407l-125 -6q-25 1 -25 26q0 8 17.5 42.5t40.5 76.5t25 46q13 23 36 24l251 9q19 0 19 -27l-66 -592l104 4q24 -1 24 -26l-17 -142q-3 -25 -25 -26l-427 -15q-25 3 -25 27zM242 65q0 10 5 20l902 1531q13 22 28 23 l122 -66q20 -11 20 -26q0 -9 -6 -20l-900 -1531q-15 -23 -30 -23l-121 66q-20 11 -20 26zM769 150q0 14 8 25l349 599q9 15 18 20.5t28 6.5l153 5q20 -1 20 -26l-52 -448l88 3q25 -1 25 -26l-15 -130q-3 -26 -26 -27l-93 -3l-14 -129q-3 -24 -25 -25l-172 -6q-21 0 -21 20 l35 133l-278 -10q-28 0 -28 18zM1007 322l106 4l28 235z" />
<glyph unicode="&#xbd;" horiz-adv-x="1452" d="M86 813l16 143q2 13 6.5 18.5t19.5 6.5l106 4l45 407l-125 -6q-25 1 -25 26q0 8 17.5 42.5t40.5 76.5t25 46q13 23 36 24l251 9q19 0 19 -27l-66 -592l104 4q24 -1 24 -26l-17 -142q-3 -25 -25 -26l-427 -15q-25 3 -25 27zM242 65q0 10 5 20l902 1531q13 22 28 23 l122 -66q20 -11 20 -26q0 -9 -6 -20l-900 -1531q-15 -23 -30 -23l-121 66q-20 11 -20 26zM866 11q0 12 6 58t9 61q9 53 59.5 113.5t131.5 136.5q72 66 108.5 107.5t36.5 67.5q0 30 -25.5 46.5t-64.5 16.5q-38 0 -101 -13q-57 -12 -82 -12q-22 0 -22 28l17 142q2 13 6.5 18 t18.5 9q100 26 210 26q113 0 184 -57.5t71 -175.5q0 -38 -10.5 -71t-35 -66.5t-46 -57t-61.5 -62.5q-79 -77 -125 -134l220 8q24 -1 24 -29l-15 -142q-2 -23 -27 -25l-461 -16q-26 1 -26 23z" />
<glyph unicode="&#xbe;" horiz-adv-x="1452" d="M86 813l16 143q2 13 6.5 18.5t19.5 6.5l106 4l45 407l-125 -6q-25 1 -25 26q0 8 17.5 42.5t40.5 76.5t25 46q13 23 36 24l251 9q19 0 19 -27l-66 -592l104 4q24 -1 24 -26l-17 -142q-3 -25 -25 -26l-427 -15q-25 3 -25 27zM242 65q0 10 5 20l902 1531q13 22 28 23 l122 -66q20 -11 20 -26q0 -9 -6 -20l-900 -1531q-15 -23 -30 -23l-121 66q-20 11 -20 26zM769 150q0 14 8 25l349 599q9 15 18 20.5t28 6.5l153 5q20 -1 20 -26l-52 -448l88 3q25 -1 25 -26l-15 -130q-3 -26 -26 -27l-93 -3l-14 -129q-3 -24 -25 -25l-172 -6q-21 0 -21 20 l35 133l-278 -10q-28 0 -28 18zM1007 322l106 4l28 235z" />
<glyph unicode="&#xbf;" horiz-adv-x="819" d="M40 -69q0 122 38.5 210.5t109.5 180.5q47 61 68 91t52.5 86.5t44.5 115t13 128.5q0 25 25 26l197 8q9 0 15 -6t6 -15q0 -57 -7 -110.5t-15.5 -92t-28 -83t-31 -68t-39.5 -63.5t-38 -52.5t-41 -52.5q-57 -74 -85.5 -132.5t-28.5 -134.5q0 -129 121 -129q52 0 139 16 q65 12 80 12q22 0 22 -28l-24 -190q-1 -12 -6 -17t-19 -10q-174 -31 -256 -31q-142 0 -227 94.5t-85 246.5zM337 1045q0 70 53 121t124 51q60 0 100 -41.5t40 -101.5q0 -69 -52.5 -120t-123.5 -51q-60 0 -100.5 41t-40.5 101z" />
<glyph unicode="&#xc0;" d="M29 15l439 1513q7 22 27 23l220 8q21 -1 23 -24l117 -1506q0 -13 -6 -18.5t-20 -6.5l-209 -8q-21 0 -21 19l-15 330l-227 -9l-75 -308q-3 -14 -8 -19t-18 -6l-207 -7q-20 0 -20 19zM354 1897q0 23 23 24l231 8q12 -1 18 -5.5t13 -19.5l73 -192q0 -26 -26 -27l-136 -7 q-15 1 -33 21zM409 549l166 6l-26 568z" />
<glyph unicode="&#xc1;" d="M29 15l439 1513q7 22 27 23l220 8q21 -1 23 -24l117 -1506q0 -13 -6 -18.5t-20 -6.5l-209 -8q-21 0 -21 19l-15 330l-227 -9l-75 -308q-3 -14 -8 -19t-18 -6l-207 -7q-20 0 -20 19zM409 549l166 6l-26 568zM504 1689l81 202q9 23 43 25l212 14q26 -2 26 -25l-164 -208 q-18 -21 -45 -23l-131 -5q-22 2 -22 20z" />
<glyph unicode="&#xc2;" d="M29 15l439 1513q7 22 27 23l220 8q21 -1 23 -24l117 -1506q0 -13 -6 -18.5t-20 -6.5l-209 -8q-21 0 -21 19l-15 330l-227 -9l-75 -308q-3 -14 -8 -19t-18 -6l-207 -7q-20 0 -20 19zM264 1658l227 249q16 19 29 20l271 12q13 0 32 -26l176 -223q0 -14 -5 -20t-20 -7 l-145 -5q-11 0 -37 20l-157 136l-167 -147q-24 -22 -40 -23l-142 -6q-22 2 -22 20zM409 549l166 6l-26 568z" />
<glyph unicode="&#xc3;" d="M29 15l439 1513q7 22 27 23l220 8q21 -1 23 -24l117 -1506q0 -13 -6 -18.5t-20 -6.5l-209 -8q-21 0 -21 19l-15 330l-227 -9l-75 -308q-3 -14 -8 -19t-18 -6l-207 -7q-20 0 -20 19zM286 1780q0 18 22 41q98 101 216 101q55 0 137 -30q83 -31 139 -31q32 0 94 27 q59 26 69 26q23 0 25 -17l6 -75q0 -21 -22 -41q-23 -20 -37 -31t-44 -31t-64 -29.5t-72 -9.5q-62 0 -151 35q-64 26 -123 26q-34 0 -85 -22q-70 -31 -79 -31q-24 0 -25 16zM409 549l166 6l-26 568z" />
<glyph unicode="&#xc4;" d="M29 15l439 1513q7 22 27 23l220 8q21 -1 23 -24l117 -1506q0 -13 -6 -18.5t-20 -6.5l-209 -8q-21 0 -21 19l-15 330l-227 -9l-75 -308q-3 -14 -8 -19t-18 -6l-207 -7q-20 0 -20 19zM291 1796q0 56 43.5 94.5t102.5 38.5q51 0 84.5 -30t33.5 -79q0 -57 -44 -95t-104 -38 q-51 0 -83.5 30t-32.5 79zM409 549l166 6l-26 568zM713 1797q0 57 43 94.5t104 37.5q51 0 84.5 -30t33.5 -79q0 -57 -44.5 -95t-104.5 -38q-50 0 -83 30.5t-33 79.5z" />
<glyph unicode="&#xc5;" d="M29 15l439 1513q7 22 27 23l220 8q21 -1 23 -24l117 -1506q0 -13 -6 -18.5t-20 -6.5l-209 -8q-21 0 -21 19l-15 330l-227 -9l-75 -308q-3 -14 -8 -19t-18 -6l-207 -7q-20 0 -20 19zM373 1647q0 98 80 167t191 69q91 0 151.5 -56.5t60.5 -138.5q0 -98 -81 -167t-188 -69 q-93 0 -153.5 55.5t-60.5 139.5zM409 549l166 6l-26 568zM492 1657q0 -45 29.5 -72.5t78.5 -27.5q56 0 97 34.5t41 85.5q0 42 -31 70.5t-79 28.5q-55 0 -95.5 -34.5t-40.5 -84.5z" />
<glyph unicode="&#xc6;" horiz-adv-x="1345" d="M9 15l548 1512q9 24 26 24l714 19l-444 -34l-141 -121l-278 -856l288 15v-209l-359 -23l-101 -313q-5 -15 -9 -19.5t-16 -5.5l-208 -8q-20 0 -20 19zM550 15l173 1513q2 12 7 17t19 6l548 19q25 -3 25 -27l-25 -207q-3 -25 -26 -27l-322 -9l-43 -372l308 11q26 -1 26 -26 l-26 -204q-2 -13 -7 -18.5t-19 -6.5l-311 -12l-47 -410l383 13q26 -1 26 -26l-26 -207q-1 -13 -6.5 -18t-19.5 -8l-615 -20q-22 0 -22 19z" />
<glyph unicode="&#xc7;" horiz-adv-x="874" d="M138 365q0 309 74 718q12 68 23.5 115.5t30.5 102.5t42.5 91.5t60 72.5t83 56.5t110.5 33.5t143 13q91 0 161 -11q11 -2 16 -3.5t9 -7.5t4 -17l-23 -186q-4 -26 -21 -26q-15 0 -68 8q-63 9 -99 9q-96 0 -146 -48.5t-75 -188.5q-24 -135 -47 -366.5t-23 -354.5 q0 -145 128 -145q37 0 139 14q82 11 95 11q21 0 21 -25l-23 -186q-2 -12 -7 -17t-19 -8q-172 -31 -267 -31q-156 0 -239 101t-83 275zM273 -434q0 16 10 91q3 16 21 16q11 0 50 -13q63 -21 107 -21q117 0 117 79q0 37 -17 54.5t-43 17.5q-23 0 -65 -6q-33 -5 -49 -5 q-29 0 -51.5 24t-22.5 54q0 28 58 199l90 -10l-37 -148q82 20 139 20q64 0 109.5 -43.5t45.5 -129.5q0 -122 -67.5 -182.5t-185.5 -60.5q-50 0 -106.5 11t-84.5 24q-18 8 -18 29z" />
<glyph unicode="&#xc8;" horiz-adv-x="905" d="M110 15l173 1513q2 12 7 17t19 6l548 19q25 -3 25 -27l-25 -207q-3 -25 -26 -27l-322 -9l-43 -372l308 11q26 -1 26 -26l-26 -204q-2 -13 -7 -18.5t-19 -6.5l-311 -12l-47 -410l383 13q26 -1 26 -26l-26 -207q-1 -13 -6.5 -18t-19.5 -8l-615 -20q-22 0 -22 19zM330 1897 q0 23 23 24l231 8q12 -1 18 -5.5t13 -19.5l73 -192q0 -26 -26 -27l-136 -7q-15 1 -33 21z" />
<glyph unicode="&#xc9;" horiz-adv-x="905" d="M110 15l173 1513q2 12 7 17t19 6l548 19q25 -3 25 -27l-25 -207q-3 -25 -26 -27l-322 -9l-43 -372l308 11q26 -1 26 -26l-26 -204q-2 -13 -7 -18.5t-19 -6.5l-311 -12l-47 -410l383 13q26 -1 26 -26l-26 -207q-1 -13 -6.5 -18t-19.5 -8l-615 -20q-22 0 -22 19zM480 1689 l81 202q9 23 43 25l212 14q26 -2 26 -25l-164 -208q-18 -21 -45 -23l-131 -5q-22 2 -22 20z" />
<glyph unicode="&#xca;" horiz-adv-x="905" d="M110 15l173 1513q2 12 7 17t19 6l548 19q25 -3 25 -27l-25 -207q-3 -25 -26 -27l-322 -9l-43 -372l308 11q26 -1 26 -26l-26 -204q-2 -13 -7 -18.5t-19 -6.5l-311 -12l-47 -410l383 13q26 -1 26 -26l-26 -207q-1 -13 -6.5 -18t-19.5 -8l-615 -20q-22 0 -22 19zM240 1658 l227 249q16 19 29 20l271 12q13 0 32 -26l176 -223q0 -14 -5 -20t-20 -7l-145 -5q-11 0 -37 20l-157 136l-167 -147q-24 -22 -40 -23l-142 -6q-22 2 -22 20z" />
<glyph unicode="&#xcb;" horiz-adv-x="905" d="M110 15l173 1513q2 12 7 17t19 6l548 19q25 -3 25 -27l-25 -207q-3 -25 -26 -27l-322 -9l-43 -372l308 11q26 -1 26 -26l-26 -204q-2 -13 -7 -18.5t-19 -6.5l-311 -12l-47 -410l383 13q26 -1 26 -26l-26 -207q-1 -13 -6.5 -18t-19.5 -8l-615 -20q-22 0 -22 19zM267 1796 q0 56 43.5 94.5t102.5 38.5q51 0 84.5 -30t33.5 -79q0 -57 -44 -95t-104 -38q-51 0 -83.5 30t-32.5 79zM689 1797q0 57 43 94.5t104 37.5q51 0 84.5 -30t33.5 -79q0 -57 -44.5 -95t-104.5 -38q-50 0 -83 30.5t-33 79.5z" />
<glyph unicode="&#xcc;" horiz-adv-x="557" d="M110 15l173 1513q2 12 7 17t19 6l200 7q26 -1 26 -24l-171 -1506q-3 -24 -26 -25l-206 -7q-22 0 -22 19zM162 1897q0 23 23 24l231 8q12 -1 18 -5.5t13 -19.5l73 -192q0 -26 -26 -27l-136 -7q-15 1 -33 21z" />
<glyph unicode="&#xcd;" horiz-adv-x="557" d="M110 15l173 1513q2 12 7 17t19 6l200 7q26 -1 26 -24l-171 -1506q-3 -24 -26 -25l-206 -7q-22 0 -22 19zM312 1689l81 202q9 23 43 25l212 14q26 -2 26 -25l-164 -208q-18 -21 -45 -23l-131 -5q-22 2 -22 20z" />
<glyph unicode="&#xce;" horiz-adv-x="557" d="M72 1658l227 249q16 19 29 20l271 12q13 0 32 -26l176 -223q0 -14 -5 -20t-20 -7l-145 -5q-11 0 -37 20l-157 136l-167 -147q-24 -22 -40 -23l-142 -6q-22 2 -22 20zM110 15l173 1513q2 12 7 17t19 6l200 7q26 -1 26 -24l-171 -1506q-3 -24 -26 -25l-206 -7q-22 0 -22 19 z" />
<glyph unicode="&#xcf;" horiz-adv-x="557" d="M99 1796q0 56 43.5 94.5t102.5 38.5q51 0 84.5 -30t33.5 -79q0 -57 -44 -95t-104 -38q-51 0 -83.5 30t-32.5 79zM110 15l173 1513q2 12 7 17t19 6l200 7q26 -1 26 -24l-171 -1506q-3 -24 -26 -25l-206 -7q-22 0 -22 19zM521 1797q0 57 43 94.5t104 37.5q51 0 84.5 -30 t33.5 -79q0 -57 -44.5 -95t-104.5 -38q-50 0 -83 30.5t-33 79.5z" />
<glyph unicode="&#xd0;" horiz-adv-x="1058" d="M26 564l19 179q1 9 3 14t7.5 8.5t16.5 3.5l489 17q24 -1 24 -25l-22 -180q-2 -13 -6.5 -18.5t-17.5 -6.5l-489 -19q-24 3 -24 27zM110 15l173 1513q2 12 7 17t19 6q178 17 347 17q166 0 256 -96.5t90 -264.5q0 -317 -71 -730q-20 -114 -50.5 -193.5t-72.5 -132.5 t-106 -84t-138.5 -44.5t-182.5 -17.5l-249 -9q-22 1 -22 19zM390 246q149 13 206.5 58t78.5 161q25 136 47.5 354t22.5 357q0 82 -40 122t-129 40q-48 0 -64 -3z" />
<glyph unicode="&#xd1;" horiz-adv-x="1085" d="M110 15l173 1513q2 12 7 17t19 6l203 11q14 0 18.5 -5.5t7.5 -18.5l203 -1009l70 999q1 22 27 23l199 11q27 0 27 -24l-172 -1506q-2 -13 -7.5 -18.5t-18.5 -6.5l-198 -11q-17 0 -20 19l-210 1068l-74 -1055q-1 -24 -26 -25l-206 -7q-22 0 -22 19zM358 1780q0 18 22 41 q98 101 216 101q55 0 137 -30q83 -31 139 -31q32 0 94 27q59 26 69 26q23 0 25 -17l6 -75q0 -21 -22 -41q-23 -20 -37 -31t-44 -31t-64 -29.5t-72 -9.5q-62 0 -151 35q-64 26 -123 26q-34 0 -85 -22q-70 -31 -79 -31q-24 0 -25 16z" />
<glyph unicode="&#xd2;" horiz-adv-x="1047" d="M138 348q0 137 19 345t58 397q19 91 38 153.5t53 130t78.5 108t114 66.5t159.5 26q163 0 249.5 -101t86.5 -264q0 -132 -19 -341.5t-57 -399.5q-18 -91 -37.5 -155.5t-53.5 -130.5t-78.5 -106t-113.5 -65.5t-158 -25.5q-167 0 -253 100t-86 263zM393 371 q0 -73 31.5 -111.5t79.5 -38.5q127 0 163 234q24 155 48 386t24 346q0 73 -30.5 112t-75.5 39q-66 0 -106 -55t-62 -180q-24 -138 -48 -374.5t-24 -357.5zM404 1897q0 23 23 24l231 8q12 -1 18 -5.5t13 -19.5l73 -192q0 -26 -26 -27l-136 -7q-15 1 -33 21z" />
<glyph unicode="&#xd3;" horiz-adv-x="1047" d="M138 348q0 137 19 345t58 397q19 91 38 153.5t53 130t78.5 108t114 66.5t159.5 26q163 0 249.5 -101t86.5 -264q0 -132 -19 -341.5t-57 -399.5q-18 -91 -37.5 -155.5t-53.5 -130.5t-78.5 -106t-113.5 -65.5t-158 -25.5q-167 0 -253 100t-86 263zM393 371 q0 -73 31.5 -111.5t79.5 -38.5q127 0 163 234q24 155 48 386t24 346q0 73 -30.5 112t-75.5 39q-66 0 -106 -55t-62 -180q-24 -138 -48 -374.5t-24 -357.5zM554 1689l81 202q9 23 43 25l212 14q26 -2 26 -25l-164 -208q-18 -21 -45 -23l-131 -5q-22 2 -22 20z" />
<glyph unicode="&#xd4;" horiz-adv-x="1047" d="M138 348q0 137 19 345t58 397q19 91 38 153.5t53 130t78.5 108t114 66.5t159.5 26q163 0 249.5 -101t86.5 -264q0 -132 -19 -341.5t-57 -399.5q-18 -91 -37.5 -155.5t-53.5 -130.5t-78.5 -106t-113.5 -65.5t-158 -25.5q-167 0 -253 100t-86 263zM314 1658l227 249 q16 19 29 20l271 12q13 0 32 -26l176 -223q0 -14 -5 -20t-20 -7l-145 -5q-11 0 -37 20l-157 136l-167 -147q-24 -22 -40 -23l-142 -6q-22 2 -22 20zM393 371q0 -73 31.5 -111.5t79.5 -38.5q127 0 163 234q24 155 48 386t24 346q0 73 -30.5 112t-75.5 39q-66 0 -106 -55 t-62 -180q-24 -138 -48 -374.5t-24 -357.5z" />
<glyph unicode="&#xd5;" horiz-adv-x="1047" d="M138 348q0 137 19 345t58 397q19 91 38 153.5t53 130t78.5 108t114 66.5t159.5 26q163 0 249.5 -101t86.5 -264q0 -132 -19 -341.5t-57 -399.5q-18 -91 -37.5 -155.5t-53.5 -130.5t-78.5 -106t-113.5 -65.5t-158 -25.5q-167 0 -253 100t-86 263zM336 1780q0 18 22 41 q98 101 216 101q55 0 137 -30q83 -31 139 -31q32 0 94 27q59 26 69 26q23 0 25 -17l6 -75q0 -21 -22 -41q-23 -20 -37 -31t-44 -31t-64 -29.5t-72 -9.5q-62 0 -151 35q-64 26 -123 26q-34 0 -85 -22q-70 -31 -79 -31q-24 0 -25 16zM393 371q0 -73 31.5 -111.5t79.5 -38.5 q127 0 163 234q24 155 48 386t24 346q0 73 -30.5 112t-75.5 39q-66 0 -106 -55t-62 -180q-24 -138 -48 -374.5t-24 -357.5z" />
<glyph unicode="&#xd6;" horiz-adv-x="1047" d="M138 348q0 137 19 345t58 397q19 91 38 153.5t53 130t78.5 108t114 66.5t159.5 26q163 0 249.5 -101t86.5 -264q0 -132 -19 -341.5t-57 -399.5q-18 -91 -37.5 -155.5t-53.5 -130.5t-78.5 -106t-113.5 -65.5t-158 -25.5q-167 0 -253 100t-86 263zM341 1796q0 56 43.5 94.5 t102.5 38.5q51 0 84.5 -30t33.5 -79q0 -57 -44 -95t-104 -38q-51 0 -83.5 30t-32.5 79zM393 371q0 -73 31.5 -111.5t79.5 -38.5q127 0 163 234q24 155 48 386t24 346q0 73 -30.5 112t-75.5 39q-66 0 -106 -55t-62 -180q-24 -138 -48 -374.5t-24 -357.5zM763 1797 q0 57 43 94.5t104 37.5q51 0 84.5 -30t33.5 -79q0 -57 -44.5 -95t-104.5 -38q-50 0 -83 30.5t-33 79.5z" />
<glyph unicode="&#xd7;" d="M154 497q0 7 6 13l237 215l-163 215q-6 8 -6 15q0 10 12 19l132 105q8 6 12 6q10 0 21 -15l152 -200l222 202q15 13 22 13q6 0 12 -6l102 -128q7 -10 7 -15q0 -8 -8 -13l-234 -214l177 -231q6 -6 6 -15q0 -8 -11 -18l-125 -111q-11 -9 -17 -9q-5 0 -20 15l-169 222 l-222 -203q-13 -13 -22 -13q-5 0 -12 7l-106 129q-5 6 -5 15z" />
<glyph unicode="&#xd8;" horiz-adv-x="1047" d="M138 348q0 137 19 345t58 397q19 91 38 153.5t53 130t78.5 108t114 66.5t159.5 26q163 0 249.5 -101t86.5 -264q0 -132 -19 -341.5t-57 -399.5q-18 -91 -37.5 -155.5t-53.5 -130.5t-78.5 -106t-113.5 -65.5t-158 -25.5q-167 0 -253 100t-86 263zM236 -112l567 1794 q6 17 28 17l24 -5q12 -3 17 -8t5 -16l-565 -1787q-4 -12 -8.5 -16t-16.5 -4l-31 7q-20 5 -20 18zM393 371q0 -73 31.5 -111.5t79.5 -38.5q127 0 163 234q24 155 48 386t24 346q0 73 -30.5 112t-75.5 39q-66 0 -106 -55t-62 -180q-24 -138 -48 -374.5t-24 -357.5z" />
<glyph unicode="&#xd9;" horiz-adv-x="1063" d="M155 327q0 81 10 169l118 1032q2 13 6.5 17.5t18.5 5.5l202 7q25 -1 25 -24l-115 -1025q-14 -118 -14 -158q0 -60 28 -95t82 -35q72 0 105 63t49 202l117 1042q3 22 27 23l202 8q25 -1 25 -24l-115 -1026q-11 -100 -29.5 -176t-52 -144t-81 -111t-118.5 -68t-163 -25 q-152 0 -239.5 86.5t-87.5 255.5zM414 1897q0 23 23 24l231 8q12 -1 18 -5.5t13 -19.5l73 -192q0 -26 -26 -27l-136 -7q-15 1 -33 21z" />
<glyph unicode="&#xda;" horiz-adv-x="1063" d="M155 327q0 81 10 169l118 1032q2 13 6.5 17.5t18.5 5.5l202 7q25 -1 25 -24l-115 -1025q-14 -118 -14 -158q0 -60 28 -95t82 -35q72 0 105 63t49 202l117 1042q3 22 27 23l202 8q25 -1 25 -24l-115 -1026q-11 -100 -29.5 -176t-52 -144t-81 -111t-118.5 -68t-163 -25 q-152 0 -239.5 86.5t-87.5 255.5zM564 1689l81 202q9 23 43 25l212 14q26 -2 26 -25l-164 -208q-18 -21 -45 -23l-131 -5q-22 2 -22 20z" />
<glyph unicode="&#xdb;" horiz-adv-x="1063" d="M155 327q0 81 10 169l118 1032q2 13 6.5 17.5t18.5 5.5l202 7q25 -1 25 -24l-115 -1025q-14 -118 -14 -158q0 -60 28 -95t82 -35q72 0 105 63t49 202l117 1042q3 22 27 23l202 8q25 -1 25 -24l-115 -1026q-11 -100 -29.5 -176t-52 -144t-81 -111t-118.5 -68t-163 -25 q-152 0 -239.5 86.5t-87.5 255.5zM324 1658l227 249q16 19 29 20l271 12q13 0 32 -26l176 -223q0 -14 -5 -20t-20 -7l-145 -5q-11 0 -37 20l-157 136l-167 -147q-24 -22 -40 -23l-142 -6q-22 2 -22 20z" />
<glyph unicode="&#xdc;" horiz-adv-x="1063" d="M155 327q0 81 10 169l118 1032q2 13 6.5 17.5t18.5 5.5l202 7q25 -1 25 -24l-115 -1025q-14 -118 -14 -158q0 -60 28 -95t82 -35q72 0 105 63t49 202l117 1042q3 22 27 23l202 8q25 -1 25 -24l-115 -1026q-11 -100 -29.5 -176t-52 -144t-81 -111t-118.5 -68t-163 -25 q-152 0 -239.5 86.5t-87.5 255.5zM351 1796q0 56 43.5 94.5t102.5 38.5q51 0 84.5 -30t33.5 -79q0 -57 -44 -95t-104 -38q-51 0 -83.5 30t-32.5 79zM773 1797q0 57 43 94.5t104 37.5q51 0 84.5 -30t33.5 -79q0 -57 -44.5 -95t-104.5 -38q-50 0 -83 30.5t-33 79.5z" />
<glyph unicode="&#xdd;" horiz-adv-x="897" d="M152 1535q0 14 27 16l203 8q22 -1 26 -20l114 -571l205 560q8 22 25 23l206 7q12 -1 19.5 -8t7.5 -15l-373 -834l-77 -673q-3 -24 -26 -25l-206 -7q-22 0 -22 19l75 664zM484 1689l81 202q9 23 43 25l212 14q26 -2 26 -25l-164 -208q-18 -21 -45 -23l-131 -5 q-22 2 -22 20z" />
<glyph unicode="&#xde;" horiz-adv-x="1006" d="M110 15l173 1513q2 12 7 17t19 6l200 7q26 -1 26 -24l-171 -1506q-3 -24 -26 -25l-206 -7q-22 0 -22 19zM265 1242q3 22 26 23q178 15 348 15q165 0 248 -83.5t83 -242.5q0 -182 -35 -316q-88 -336 -543 -336l28 233q184 0 239 77q55 78 55 279q0 81 -42.5 119t-132.5 38 q-45 0 -60 -2z" />
<glyph unicode="&#xdf;" horiz-adv-x="1171" d="M93 1017l19 161q1 8 3 12.5t7.5 8t15.5 3.5l125 6l18 157q9 83 38.5 151t82 122t134.5 84t189 30q181 0 292.5 -86.5t111.5 -234.5q0 -78 -27.5 -135.5t-80.5 -124.5q-31 -39 -46.5 -60.5t-36.5 -59t-30.5 -77t-9.5 -84.5q0 -66 72 -216q35 -72 51 -108t34.5 -98.5 t18.5 -112.5q0 -173 -98 -269.5t-277 -96.5q-61 0 -119 9t-58 33l24 196q2 25 17 25q28 0 61 -9q50 -13 78 -13q56 0 82.5 35.5t26.5 86.5q0 38 -13 86.5t-27 81.5t-41 94q-81 180 -81 292q0 62 20.5 121.5t43 95.5t60.5 85q32 42 47.5 64t30 56t14.5 64q0 62 -42.5 99.5 t-115.5 37.5q-98 0 -141 -56.5t-58 -193.5l-131 -1249q-3 -27 -26 -27l-201 -7q-21 2 -21 19l110 982l-120 -5q-26 1 -26 25z" />
<glyph unicode="&#xe0;" horiz-adv-x="1054" d="M131 398q0 198 30 354q15 76 32 136.5t45.5 124.5t64.5 107t89 70.5t118 27.5q93 0 142 -44.5t82 -131.5l12 136q1 12 6 17.5t19 6.5l196 7q26 -2 26 -26l-130 -1153q-3 -26 -26 -27l-202 -7q-21 2 -21 19l19 136q-46 -78 -100.5 -120t-129.5 -42q-61 0 -109 23.5 t-78.5 62t-50 92.5t-27 110.5t-7.5 120.5zM383 458q0 -239 128 -239q56 0 91 51.5t58 187.5q28 174 28 287q0 29 -1 48t-4 50.5t-11 53t-21 43t-34.5 32.5t-50.5 11q-57 0 -91 -51.5t-63 -187.5q-8 -36 -18.5 -131t-10.5 -155zM389 1763q0 24 23 25l189 7q25 -1 32 -28 l103 -401q0 -28 -24 -29l-117 -4q-24 0 -33 22z" />
<glyph unicode="&#xe1;" horiz-adv-x="1054" d="M131 398q0 198 30 354q15 76 32 136.5t45.5 124.5t64.5 107t89 70.5t118 27.5q93 0 142 -44.5t82 -131.5l12 136q1 12 6 17.5t19 6.5l196 7q26 -2 26 -26l-130 -1153q-3 -26 -26 -27l-202 -7q-21 2 -21 19l19 136q-46 -78 -100.5 -120t-129.5 -42q-61 0 -109 23.5 t-78.5 62t-50 92.5t-27 110.5t-7.5 120.5zM383 458q0 -239 128 -239q56 0 91 51.5t58 187.5q28 174 28 287q0 29 -1 48t-4 50.5t-11 53t-21 43t-34.5 32.5t-50.5 11q-57 0 -91 -51.5t-63 -187.5q-8 -36 -18.5 -131t-10.5 -155zM546 1360l135 412q9 26 33 27l189 7 q26 -2 26 -27l-192 -412q-10 -20 -35 -22l-134 -5q-22 2 -22 20z" />
<glyph unicode="&#xe2;" horiz-adv-x="1054" d="M131 398q0 198 30 354q15 76 32 136.5t45.5 124.5t64.5 107t89 70.5t118 27.5q93 0 142 -44.5t82 -131.5l12 136q1 12 6 17.5t19 6.5l196 7q26 -2 26 -26l-130 -1153q-3 -26 -26 -27l-202 -7q-21 2 -21 19l19 136q-46 -78 -100.5 -120t-129.5 -42q-61 0 -109 23.5 t-78.5 62t-50 92.5t-27 110.5t-7.5 120.5zM340 1371l227 406q13 25 34 26l177 7q25 -1 33 -26l121 -399q0 -15 -4.5 -21.5t-19.5 -7.5l-129 -5q-26 2 -32 20l-76 226l-142 -216q-15 -23 -36 -24l-132 -6q-21 2 -21 20zM383 458q0 -239 128 -239q56 0 91 51.5t58 187.5 q28 174 28 287q0 29 -1 48t-4 50.5t-11 53t-21 43t-34.5 32.5t-50.5 11q-57 0 -91 -51.5t-63 -187.5q-8 -36 -18.5 -131t-10.5 -155z" />
<glyph unicode="&#xe3;" horiz-adv-x="1054" d="M131 398q0 198 30 354q15 76 32 136.5t45.5 124.5t64.5 107t89 70.5t118 27.5q93 0 142 -44.5t82 -131.5l12 136q1 12 6 17.5t19 6.5l196 7q26 -2 26 -26l-130 -1153q-3 -26 -26 -27l-202 -7q-21 2 -21 19l19 136q-46 -78 -100.5 -120t-129.5 -42q-61 0 -109 23.5 t-78.5 62t-50 92.5t-27 110.5t-7.5 120.5zM337 1515q0 19 22 41q110 110 217 110q45 0 117 -32q70 -32 112 -32q36 0 89 23q61 26 79 26q20 0 22 -19l6 -75q0 -19 -24 -41q-108 -108 -217 -108q-46 0 -118 32q-68 30 -110 30q-36 0 -96 -25q-57 -24 -74 -24t-19 19zM383 458 q0 -239 128 -239q56 0 91 51.5t58 187.5q28 174 28 287q0 29 -1 48t-4 50.5t-11 53t-21 43t-34.5 32.5t-50.5 11q-57 0 -91 -51.5t-63 -187.5q-8 -36 -18.5 -131t-10.5 -155z" />
<glyph unicode="&#xe4;" horiz-adv-x="1054" d="M131 398q0 198 30 354q15 76 32 136.5t45.5 124.5t64.5 107t89 70.5t118 27.5q93 0 142 -44.5t82 -131.5l12 136q1 12 6 17.5t19 6.5l196 7q26 -2 26 -26l-130 -1153q-3 -26 -26 -27l-202 -7q-21 2 -21 19l19 136q-46 -78 -100.5 -120t-129.5 -42q-61 0 -109 23.5 t-78.5 62t-50 92.5t-27 110.5t-7.5 120.5zM335 1549q0 57 44 100t103 43q50 0 83.5 -34.5t33.5 -85.5q0 -57 -44.5 -99.5t-103.5 -42.5q-49 0 -82.5 34.5t-33.5 84.5zM383 458q0 -239 128 -239q56 0 91 51.5t58 187.5q28 174 28 287q0 29 -1 48t-4 50.5t-11 53t-21 43 t-34.5 32.5t-50.5 11q-57 0 -91 -51.5t-63 -187.5q-8 -36 -18.5 -131t-10.5 -155zM734 1550q0 58 43.5 100t102.5 42q50 0 84.5 -34.5t34.5 -85.5q0 -57 -45.5 -99.5t-103.5 -42.5q-49 0 -82.5 35t-33.5 85z" />
<glyph unicode="&#xe5;" horiz-adv-x="1054" d="M131 398q0 198 30 354q15 76 32 136.5t45.5 124.5t64.5 107t89 70.5t118 27.5q93 0 142 -44.5t82 -131.5l12 136q1 12 6 17.5t19 6.5l196 7q26 -2 26 -26l-130 -1153q-3 -26 -26 -27l-202 -7q-21 2 -21 19l19 136q-46 -78 -100.5 -120t-129.5 -42q-61 0 -109 23.5 t-78.5 62t-50 92.5t-27 110.5t-7.5 120.5zM383 458q0 -239 128 -239q56 0 91 51.5t58 187.5q28 174 28 287q0 29 -1 48t-4 50.5t-11 53t-21 43t-34.5 32.5t-50.5 11q-57 0 -91 -51.5t-63 -187.5q-8 -36 -18.5 -131t-10.5 -155zM427 1549q0 98 80 167t191 69 q91 0 151.5 -56.5t60.5 -138.5q0 -98 -81 -167t-188 -69q-93 0 -153.5 55.5t-60.5 139.5zM546 1559q0 -45 29.5 -72.5t78.5 -27.5q56 0 97 34.5t41 85.5q0 42 -31 70.5t-79 28.5q-55 0 -95.5 -34.5t-40.5 -84.5z" />
<glyph unicode="&#xe6;" horiz-adv-x="1494" d="M98 314q0 328 346 371q82 10 213 18q7 46 7 84q0 41 -7.5 75.5t-24.5 65.5t-49 49t-76 18q-98 0 -160 -24q-61 -23 -77 -23q-14 0 -23 8t-9 22l20 176q1 15 6 20t17 9q43 13 125.5 24t139.5 11q175 0 259 -125q109 125 297 125q148 0 225.5 -98.5t77.5 -266.5 q0 -171 -20 -272q-5 -27 -31 -28l-489 -16q-3 -45 -3 -80q0 -113 39.5 -179t109.5 -66q98 0 169 27q56 20 68 20q14 0 23 -8t9 -22l-20 -176q-1 -15 -5.5 -19.5t-17.5 -9.5q-121 -35 -265 -35q-224 0 -298 202q-50 -98 -120 -150t-171 -52q-137 0 -211 85.5t-74 239.5z M332 348q0 -129 118 -129q26 0 48.5 7.5t39 17t30.5 29.5t23 34.5t17.5 43t12.5 44t8.5 48.5t6 45t4.5 45q-80 0 -166 -16q-63 -12 -102.5 -55.5t-39.5 -113.5zM882 715l254 13q30 1 33 28q4 36 4 74q0 29 -4.5 55.5t-15 54t-32.5 44.5t-53 17q-73 0 -114.5 -52.5 t-66.5 -200.5z" />
<glyph unicode="&#xe7;" horiz-adv-x="886" d="M131 429q0 163 23 297q16 89 37.5 159t57.5 134.5t84 106.5t118.5 67t159.5 25q116 0 212 -31q22 -8 22 -38l-23 -181q-2 -20 -30 -20q-23 0 -46 10q-97 43 -156 43q-69 0 -107 -53t-72 -199q-12 -52 -22 -139.5t-10 -151.5q0 -246 127 -246q92 0 158 27q48 20 67 20 q15 0 24 -8t9 -22l-21 -176q-1 -10 -4 -15.5t-6 -7.5t-12 -6q-121 -35 -254 -35q-80 0 -141.5 27t-97.5 69.5t-58.5 102.5t-30.5 117.5t-8 123.5zM233 -444q0 16 10 91q3 16 21 16q11 0 50 -13q63 -21 107 -21q117 0 117 79q0 37 -17 54.5t-43 17.5q-23 0 -65 -6 q-33 -5 -49 -5q-29 0 -51.5 24t-22.5 54q0 28 58 199l90 -10l-37 -148q82 20 139 20q64 0 109.5 -43.5t45.5 -129.5q0 -122 -67.5 -182.5t-185.5 -60.5q-50 0 -106.5 11t-84.5 24q-18 8 -18 29z" />
<glyph unicode="&#xe8;" horiz-adv-x="996" d="M131 429q0 139 22 289q73 500 454 500q147 0 225 -101t78 -270q0 -153 -20 -305q-3 -27 -31 -28l-494 -17q-1 -15 -1 -40q0 -113 39.5 -179t109.5 -66q90 0 169 27q58 20 68 20q14 0 23 -8t9 -22l-20 -176q-1 -15 -5.5 -19.5t-17.5 -9.5q-121 -35 -265 -35q-80 0 -142 27 t-99.5 69.5t-61 102t-32 118t-8.5 123.5zM359 1763q0 24 23 25l189 7q25 -1 32 -28l103 -401q0 -28 -24 -29l-117 -4q-24 0 -33 22zM380 684l261 13q17 1 22 6t7 21q8 56 8 100q0 29 -4.5 56.5t-15 56.5t-32.5 46.5t-53 17.5q-49 0 -81 -19.5t-59 -76t-44 -157.5z" />
<glyph unicode="&#xe9;" horiz-adv-x="996" d="M131 429q0 139 22 289q73 500 454 500q147 0 225 -101t78 -270q0 -153 -20 -305q-3 -27 -31 -28l-494 -17q-1 -15 -1 -40q0 -113 39.5 -179t109.5 -66q90 0 169 27q58 20 68 20q14 0 23 -8t9 -22l-20 -176q-1 -15 -5.5 -19.5t-17.5 -9.5q-121 -35 -265 -35q-80 0 -142 27 t-99.5 69.5t-61 102t-32 118t-8.5 123.5zM380 684l261 13q17 1 22 6t7 21q8 56 8 100q0 29 -4.5 56.5t-15 56.5t-32.5 46.5t-53 17.5q-49 0 -81 -19.5t-59 -76t-44 -157.5zM516 1360l135 412q9 26 33 27l189 7q26 -2 26 -27l-192 -412q-10 -20 -35 -22l-134 -5q-22 2 -22 20 z" />
<glyph unicode="&#xea;" horiz-adv-x="996" d="M131 429q0 139 22 289q73 500 454 500q147 0 225 -101t78 -270q0 -153 -20 -305q-3 -27 -31 -28l-494 -17q-1 -15 -1 -40q0 -113 39.5 -179t109.5 -66q90 0 169 27q58 20 68 20q14 0 23 -8t9 -22l-20 -176q-1 -15 -5.5 -19.5t-17.5 -9.5q-121 -35 -265 -35q-80 0 -142 27 t-99.5 69.5t-61 102t-32 118t-8.5 123.5zM310 1371l227 406q13 25 34 26l177 7q25 -1 33 -26l121 -399q0 -15 -4.5 -21.5t-19.5 -7.5l-129 -5q-26 2 -32 20l-76 226l-142 -216q-15 -23 -36 -24l-132 -6q-21 2 -21 20zM380 684l261 13q17 1 22 6t7 21q8 56 8 100 q0 29 -4.5 56.5t-15 56.5t-32.5 46.5t-53 17.5q-49 0 -81 -19.5t-59 -76t-44 -157.5z" />
<glyph unicode="&#xeb;" horiz-adv-x="996" d="M131 429q0 139 22 289q73 500 454 500q147 0 225 -101t78 -270q0 -153 -20 -305q-3 -27 -31 -28l-494 -17q-1 -15 -1 -40q0 -113 39.5 -179t109.5 -66q90 0 169 27q58 20 68 20q14 0 23 -8t9 -22l-20 -176q-1 -15 -5.5 -19.5t-17.5 -9.5q-121 -35 -265 -35q-80 0 -142 27 t-99.5 69.5t-61 102t-32 118t-8.5 123.5zM305 1549q0 57 44 100t103 43q50 0 83.5 -34.5t33.5 -85.5q0 -57 -44.5 -99.5t-103.5 -42.5q-49 0 -82.5 34.5t-33.5 84.5zM380 684l261 13q17 1 22 6t7 21q8 56 8 100q0 29 -4.5 56.5t-15 56.5t-32.5 46.5t-53 17.5 q-49 0 -81 -19.5t-59 -76t-44 -157.5zM704 1550q0 58 43.5 100t102.5 42q50 0 84.5 -34.5t34.5 -85.5q0 -57 -45.5 -99.5t-103.5 -42.5q-49 0 -82.5 35t-33.5 85z" />
<glyph unicode="&#xec;" horiz-adv-x="546" d="M106 15l132 1163q2 12 7 17.5t18 6.5l195 7q27 -2 27 -26l-130 -1153q-2 -14 -7 -20t-19 -7l-201 -7q-22 2 -22 19zM114 1763q0 24 23 25l189 7q25 -1 32 -28l103 -401q0 -28 -24 -29l-117 -4q-24 0 -33 22z" />
<glyph unicode="&#xed;" horiz-adv-x="546" d="M106 15l132 1163q2 12 7 17.5t18 6.5l195 7q27 -2 27 -26l-130 -1153q-2 -14 -7 -20t-19 -7l-201 -7q-22 2 -22 19zM271 1360l135 412q9 26 33 27l189 7q26 -2 26 -27l-192 -412q-10 -20 -35 -22l-134 -5q-22 2 -22 20z" />
<glyph unicode="&#xee;" horiz-adv-x="546" d="M65 1371l227 406q13 25 34 26l177 7q25 -1 33 -26l121 -399q0 -15 -4.5 -21.5t-19.5 -7.5l-129 -5q-26 2 -32 20l-76 226l-142 -216q-15 -23 -36 -24l-132 -6q-21 2 -21 20zM106 15l132 1163q2 12 7 17.5t18 6.5l195 7q27 -2 27 -26l-130 -1153q-2 -14 -7 -20t-19 -7 l-201 -7q-22 2 -22 19z" />
<glyph unicode="&#xef;" horiz-adv-x="546" d="M60 1549q0 57 44 100t103 43q50 0 83.5 -34.5t33.5 -85.5q0 -57 -44.5 -99.5t-103.5 -42.5q-49 0 -82.5 34.5t-33.5 84.5zM106 15l132 1163q2 12 7 17.5t18 6.5l195 7q27 -2 27 -26l-130 -1153q-2 -14 -7 -20t-19 -7l-201 -7q-22 2 -22 19zM459 1550q0 58 43.5 100 t102.5 42q50 0 84.5 -34.5t34.5 -85.5q0 -57 -45.5 -99.5t-103.5 -42.5q-49 0 -82.5 35t-33.5 85z" />
<glyph unicode="&#xf0;" horiz-adv-x="1018" d="M122 397q0 93 25 241q37 216 125 326t236 110q82 0 144 -49q-26 148 -88 267l-109 -61q-11 -6 -21 -6q-8 0 -13 9l-54 102q-4 7 -4 11q0 8 11 15l105 67q-45 62 -123 154q-7 8 -7 15q0 6 12 17l74 66q13 9 21 9q10 0 23 -9q83 -63 158 -152l114 72q14 8 19 8q9 0 16 -10 l66 -123q2 -5 2 -12q0 -8 -10 -16l-109 -61q88 -147 135 -319t47 -341q0 -110 -18 -244q-15 -107 -41 -189.5t-71.5 -154.5t-118.5 -111t-171 -39q-186 0 -280.5 107t-94.5 301zM368 401q0 -36 5 -64t17.5 -55.5t39 -42.5t65.5 -15q61 0 95 49t57 185q23 143 27 265 q-2 80 -31 113t-90 33q-63 0 -98.5 -48t-55.5 -155q-31 -160 -31 -265z" />
<glyph unicode="&#xf1;" horiz-adv-x="1067" d="M106 15l132 1163q2 12 7 17.5t18 6.5l196 7q27 -1 27 -26l-11 -92q144 127 276 127q60 0 104.5 -24t70 -66.5t37.5 -93t12 -110.5q0 -29 -3 -56l-96 -838q-2 -14 -7 -20t-18 -7l-202 -7q-22 2 -22 19l91 792q3 26 3 47q0 82 -38.5 111.5t-102.5 29.5q-54 0 -118 -25 l-107 -940q-2 -14 -7 -20t-18 -7l-202 -7q-22 2 -22 19zM338 1514q0 19 22 41q110 110 217 110q45 0 117 -32q70 -32 112 -32q36 0 89 23q61 26 79 26q20 0 22 -19l6 -75q0 -19 -24 -41q-108 -108 -217 -108q-46 0 -118 32q-67 30 -110 30q-36 0 -96 -25q-57 -24 -74 -24 t-19 19z" />
<glyph unicode="&#xf2;" horiz-adv-x="1023" d="M131 406q0 95 30 312q12 89 30 158.5t51 136t78 110t113 69.5t155 26q86 0 149.5 -22.5t101 -59.5t60.5 -94t30.5 -114.5t7.5 -132.5q0 -114 -28 -312q-13 -88 -31 -156.5t-50.5 -134t-77.5 -108.5t-113.5 -69t-156.5 -26q-184 0 -266.5 106.5t-82.5 310.5zM364 1763 q0 24 23 25l189 7q25 -1 32 -28l103 -401q0 -28 -24 -29l-117 -4q-24 0 -33 22zM371 359q0 -170 122 -170q58 0 96.5 55.5t60.5 182.5q11 53 28.5 198.5t17.5 215.5q0 170 -123 170q-58 0 -95.5 -55t-60.5 -183q-46 -260 -46 -414z" />
<glyph unicode="&#xf3;" horiz-adv-x="1023" d="M131 406q0 95 30 312q12 89 30 158.5t51 136t78 110t113 69.5t155 26q86 0 149.5 -22.5t101 -59.5t60.5 -94t30.5 -114.5t7.5 -132.5q0 -114 -28 -312q-13 -88 -31 -156.5t-50.5 -134t-77.5 -108.5t-113.5 -69t-156.5 -26q-184 0 -266.5 106.5t-82.5 310.5zM371 359 q0 -170 122 -170q58 0 96.5 55.5t60.5 182.5q11 53 28.5 198.5t17.5 215.5q0 170 -123 170q-58 0 -95.5 -55t-60.5 -183q-46 -260 -46 -414zM521 1360l135 412q9 26 33 27l189 7q26 -2 26 -27l-192 -412q-10 -20 -35 -22l-134 -5q-22 2 -22 20z" />
<glyph unicode="&#xf4;" horiz-adv-x="1023" d="M131 406q0 95 30 312q12 89 30 158.5t51 136t78 110t113 69.5t155 26q86 0 149.5 -22.5t101 -59.5t60.5 -94t30.5 -114.5t7.5 -132.5q0 -114 -28 -312q-13 -88 -31 -156.5t-50.5 -134t-77.5 -108.5t-113.5 -69t-156.5 -26q-184 0 -266.5 106.5t-82.5 310.5zM315 1371 l227 406q13 25 34 26l177 7q25 -1 33 -26l121 -399q0 -15 -4.5 -21.5t-19.5 -7.5l-129 -5q-26 2 -32 20l-76 226l-142 -216q-15 -23 -36 -24l-132 -6q-21 2 -21 20zM371 359q0 -170 122 -170q58 0 96.5 55.5t60.5 182.5q11 53 28.5 198.5t17.5 215.5q0 170 -123 170 q-58 0 -95.5 -55t-60.5 -183q-46 -260 -46 -414z" />
<glyph unicode="&#xf5;" horiz-adv-x="1023" d="M131 406q0 95 30 312q12 89 30 158.5t51 136t78 110t113 69.5t155 26q86 0 149.5 -22.5t101 -59.5t60.5 -94t30.5 -114.5t7.5 -132.5q0 -114 -28 -312q-13 -88 -31 -156.5t-50.5 -134t-77.5 -108.5t-113.5 -69t-156.5 -26q-184 0 -266.5 106.5t-82.5 310.5zM312 1515 q0 19 22 41q110 110 217 110q45 0 117 -32q70 -32 112 -32q36 0 89 23q61 26 79 26q20 0 22 -19l6 -75q0 -19 -24 -41q-108 -108 -217 -108q-46 0 -118 32q-68 30 -110 30q-36 0 -96 -25q-57 -24 -74 -24t-19 19zM371 359q0 -170 122 -170q58 0 96.5 55.5t60.5 182.5 q11 53 28.5 198.5t17.5 215.5q0 170 -123 170q-58 0 -95.5 -55t-60.5 -183q-46 -260 -46 -414z" />
<glyph unicode="&#xf6;" horiz-adv-x="1023" d="M131 406q0 95 30 312q12 89 30 158.5t51 136t78 110t113 69.5t155 26q86 0 149.5 -22.5t101 -59.5t60.5 -94t30.5 -114.5t7.5 -132.5q0 -114 -28 -312q-13 -88 -31 -156.5t-50.5 -134t-77.5 -108.5t-113.5 -69t-156.5 -26q-184 0 -266.5 106.5t-82.5 310.5zM310 1549 q0 57 44 100t103 43q50 0 83.5 -34.5t33.5 -85.5q0 -57 -44.5 -99.5t-103.5 -42.5q-49 0 -82.5 34.5t-33.5 84.5zM371 359q0 -170 122 -170q58 0 96.5 55.5t60.5 182.5q11 53 28.5 198.5t17.5 215.5q0 170 -123 170q-58 0 -95.5 -55t-60.5 -183q-46 -260 -46 -414zM709 1550 q0 58 43.5 100t102.5 42q50 0 84.5 -34.5t34.5 -85.5q0 -57 -45.5 -99.5t-103.5 -42.5q-49 0 -82.5 35t-33.5 85z" />
<glyph unicode="&#xf7;" d="M147 552l20 179q1 9 2.5 13.5t7.5 8.5t16 4l655 24q23 -1 23 -25l-21 -180q-3 -24 -25 -25l-654 -25q-24 1 -24 26zM324 294q0 61 46.5 106t108.5 45q53 0 88.5 -36.5t35.5 -88.5q0 -62 -47 -107t-109 -45q-53 0 -88 36.5t-35 89.5zM404 995q0 61 46.5 106t108.5 45 q53 0 88.5 -36.5t35.5 -88.5q0 -62 -47 -107t-109 -45q-53 0 -88 36.5t-35 89.5z" />
<glyph unicode="&#xf8;" horiz-adv-x="1023" d="M131 406q0 95 30 312q12 89 30 158.5t51 136t78 110t113 69.5t155 26q86 0 149.5 -22.5t101 -59.5t60.5 -94t30.5 -114.5t7.5 -132.5q0 -114 -28 -312q-13 -88 -31 -156.5t-50.5 -134t-77.5 -108.5t-113.5 -69t-156.5 -26q-184 0 -266.5 106.5t-82.5 310.5zM271 -87 l444 1404q6 18 27 18l25 -6q22 -4 22 -25l-441 -1396q-4 -12 -9 -16t-18 -4l-29 7q-21 5 -21 18zM371 359q0 -170 122 -170q58 0 96.5 55.5t60.5 182.5q11 53 28.5 198.5t17.5 215.5q0 170 -123 170q-58 0 -95.5 -55t-60.5 -183q-46 -260 -46 -414z" />
<glyph unicode="&#xf9;" horiz-adv-x="1067" d="M139 283q0 21 4 57l95 837q3 24 25 25l202 8q21 -2 21 -21l-90 -789q-3 -26 -3 -48q0 -84 32.5 -112t108.5 -28q55 0 119 25l106 940q3 24 25 25l202 7q21 -2 21 -21l-130 -1157q-2 -14 -7.5 -19.5t-19.5 -6.5l-195 -9q-26 1 -26 25l8 77q-121 -109 -274 -109 q-115 0 -169.5 84t-54.5 210zM387 1762q0 24 23 25l189 7q25 -1 32 -28l103 -401q0 -28 -24 -29l-117 -4q-24 0 -33 22z" />
<glyph unicode="&#xfa;" horiz-adv-x="1067" d="M139 283q0 21 4 57l95 837q3 24 25 25l202 8q21 -2 21 -21l-90 -789q-3 -26 -3 -48q0 -84 32.5 -112t108.5 -28q55 0 119 25l106 940q3 24 25 25l202 7q21 -2 21 -21l-130 -1157q-2 -14 -7.5 -19.5t-19.5 -6.5l-195 -9q-26 1 -26 25l8 77q-121 -109 -274 -109 q-115 0 -169.5 84t-54.5 210zM542 1359l135 412q9 26 33 27l189 7q26 -2 26 -27l-192 -412q-10 -20 -35 -22l-134 -5q-22 2 -22 20z" />
<glyph unicode="&#xfb;" horiz-adv-x="1067" d="M139 283q0 21 4 57l95 837q3 24 25 25l202 8q21 -2 21 -21l-90 -789q-3 -26 -3 -48q0 -84 32.5 -112t108.5 -28q55 0 119 25l106 940q3 24 25 25l202 7q21 -2 21 -21l-130 -1157q-2 -14 -7.5 -19.5t-19.5 -6.5l-195 -9q-26 1 -26 25l8 77q-121 -109 -274 -109 q-115 0 -169.5 84t-54.5 210zM337 1371l227 406q13 25 34 26l177 7q25 -1 33 -26l121 -399q0 -15 -4.5 -21.5t-19.5 -7.5l-129 -5q-26 2 -32 20l-76 226l-142 -216q-15 -23 -36 -24l-132 -6q-21 2 -21 20z" />
<glyph unicode="&#xfc;" horiz-adv-x="1067" d="M139 283q0 21 4 57l95 837q3 24 25 25l202 8q21 -2 21 -21l-90 -789q-3 -26 -3 -48q0 -84 32.5 -112t108.5 -28q55 0 119 25l106 940q3 24 25 25l202 7q21 -2 21 -21l-130 -1157q-2 -14 -7.5 -19.5t-19.5 -6.5l-195 -9q-26 1 -26 25l8 77q-121 -109 -274 -109 q-115 0 -169.5 84t-54.5 210zM332 1548q0 57 44 100t103 43q50 0 83.5 -34.5t33.5 -85.5q0 -57 -44.5 -99.5t-103.5 -42.5q-49 0 -82.5 34.5t-33.5 84.5zM731 1549q0 58 43.5 100t102.5 42q50 0 84.5 -34.5t34.5 -85.5q0 -57 -45.5 -99.5t-103.5 -42.5q-49 0 -82.5 35 t-33.5 85z" />
<glyph unicode="&#xfd;" horiz-adv-x="940" d="M141 -467l172 485l-156 1160q0 23 25 24l197 7q23 -1 25 -26l76 -841l243 836q6 23 26 24l196 7q25 -2 25 -26l-577 -1637q-8 -25 -29 -26l-201 -7q-22 1 -22 20zM487 1359l135 412q9 26 33 27l189 7q26 -2 26 -27l-192 -412q-10 -20 -35 -22l-134 -5q-22 2 -22 20z" />
<glyph unicode="&#xfe;" horiz-adv-x="1056" d="M52 -462l241 2119q3 25 25 28l195 7q26 -3 26 -27l-90 -643q51 95 108.5 145.5t140.5 50.5q61 0 109 -23.5t78.5 -62t50 -92.5t27 -110.5t7.5 -120.5q0 -198 -30 -354q-15 -76 -32 -136.5t-45.5 -124.5t-64.5 -107t-89 -70.5t-118 -27.5q-53 0 -92 14.5t-65.5 44.5 t-43.5 62.5t-35 82.5l-54 -648q-1 -24 -26 -25l-196 -7q-27 1 -27 25zM413 462q0 -29 1 -48t4 -50.5t11 -53t21 -43t34.5 -32.5t50.5 -11q57 0 91 51.5t63 187.5q8 36 18.5 131t10.5 155q0 239 -128 239q-56 0 -91 -51.5t-58 -187.5q-28 -174 -28 -287z" />
<glyph unicode="&#xff;" horiz-adv-x="940" d="M141 -467l172 485l-156 1160q0 23 25 24l197 7q23 -1 25 -26l76 -841l243 836q6 23 26 24l196 7q25 -2 25 -26l-577 -1637q-8 -25 -29 -26l-201 -7q-22 1 -22 20zM277 1548q0 57 44 100t103 43q50 0 83.5 -34.5t33.5 -85.5q0 -57 -44.5 -99.5t-103.5 -42.5 q-49 0 -82.5 34.5t-33.5 84.5zM676 1549q0 58 43.5 100t102.5 42q50 0 84.5 -34.5t34.5 -85.5q0 -57 -45.5 -99.5t-103.5 -42.5q-49 0 -82.5 35t-33.5 85z" />
<glyph unicode="&#x152;" horiz-adv-x="1429" d="M138 334q0 47 4 136.5t23 274.5t50 356q12 66 24 114.5t31 100.5t42.5 87.5t58 68.5t78.5 53t103.5 31.5t132.5 11.5q83 0 147.5 -38.5t101 -101t54.5 -132t18 -141.5q0 -182 -77 -611q-13 -71 -23.5 -120t-30 -112t-42 -105.5t-58 -87t-78.5 -70.5t-103.5 -43 t-133.5 -17q-84 0 -147.5 28t-100.5 77t-55.5 109.5t-18.5 130.5zM393 368q0 -72 32 -105.5t82 -33.5q67 0 109 50.5t64 174.5q24 138 48.5 380.5t24.5 364.5q0 129 -113 129q-70 0 -112 -46t-63 -168q-24 -138 -48 -380.5t-24 -365.5zM634 15l173 1513q2 12 7 17t19 6 l548 19q25 -3 25 -27l-25 -207q-3 -25 -26 -27l-322 -9l-43 -372l308 11q26 -1 26 -26l-26 -204q-2 -13 -7 -18.5t-19 -6.5l-311 -12l-47 -410l383 13q26 -1 26 -26l-26 -207q-1 -13 -6.5 -18t-19.5 -8l-615 -20q-22 0 -22 19z" />
<glyph unicode="&#x153;" horiz-adv-x="1535" d="M131 406q0 131 25 312q13 92 29 159t46.5 135t73.5 110.5t111 69t157 26.5q184 0 258 -133q113 133 310 133q147 0 224.5 -98.5t77.5 -266.5q0 -167 -18 -269q-7 -28 -33 -29l-486 -17q-3 -45 -3 -81q0 -114 38.5 -181.5t109.5 -67.5q98 0 170 28q54 20 66 20q15 0 24 -8 t9 -22l-19 -178q-2 -21 -24 -27q-46 -14 -124.5 -25t-140.5 -11q-176 0 -265 128q-88 -128 -257 -128q-359 0 -359 421zM372 396q0 -34 1.5 -58t8.5 -54.5t19.5 -49t36 -32t56.5 -13.5q65 0 100.5 56.5t55.5 180.5q46 310 46 405q0 91 -29.5 135.5t-93.5 44.5 q-67 0 -102 -58t-63 -209q-7 -35 -21.5 -162.5t-14.5 -185.5zM920 700l241 8q26 1 36 11t13 31q4 27 4 80q0 39 -7.5 74.5t-32.5 66t-65 30.5q-73 0 -114.5 -53t-67.5 -200q-1 -5 -7 -48z" />
<glyph unicode="&#x2c6;" horiz-adv-x="877" d="M142 1257l227 406q13 25 34 26l177 7q25 -1 33 -26l121 -399q0 -15 -4.5 -21.5t-19.5 -7.5l-129 -5q-26 2 -32 20l-76 226l-142 -216q-15 -23 -36 -24l-132 -6q-21 2 -21 20z" />
<glyph unicode="&#x2dc;" horiz-adv-x="877" d="M106 1401q0 19 22 41q110 110 217 110q45 0 117 -32q70 -32 112 -32q36 0 89 23q61 26 79 26q20 0 22 -19l6 -75q0 -19 -24 -41q-108 -108 -217 -108q-46 0 -118 32q-67 30 -110 30q-36 0 -96 -25q-57 -24 -74 -24t-19 19z" />
<glyph unicode="&#x2000;" horiz-adv-x="969" />
<glyph unicode="&#x2001;" horiz-adv-x="1939" />
<glyph unicode="&#x2002;" horiz-adv-x="969" />
<glyph unicode="&#x2003;" horiz-adv-x="1939" />
<glyph unicode="&#x2004;" horiz-adv-x="646" />
<glyph unicode="&#x2005;" horiz-adv-x="484" />
<glyph unicode="&#x2006;" horiz-adv-x="323" />
<glyph unicode="&#x2007;" horiz-adv-x="323" />
<glyph unicode="&#x2008;" horiz-adv-x="242" />
<glyph unicode="&#x2009;" horiz-adv-x="387" />
<glyph unicode="&#x200a;" horiz-adv-x="107" />
<glyph unicode="&#x2010;" d="M155 660l20 179q1 9 2.5 13.5t7.5 8.5t16 4l655 24q23 -1 23 -25l-21 -180q-3 -24 -25 -25l-654 -25q-24 1 -24 26z" />
<glyph unicode="&#x2011;" d="M155 660l20 179q1 9 2.5 13.5t7.5 8.5t16 4l655 24q23 -1 23 -25l-21 -180q-3 -24 -25 -25l-654 -25q-24 1 -24 26z" />
<glyph unicode="&#x2012;" d="M155 660l20 179q1 9 2.5 13.5t7.5 8.5t16 4l655 24q23 -1 23 -25l-21 -180q-3 -24 -25 -25l-654 -25q-24 1 -24 26z" />
<glyph unicode="&#x2013;" horiz-adv-x="1407" d="M170 679l21 181q1 8 3 12.5t7.5 8t15.5 3.5l1070 37q25 -1 25 -25l-23 -180q-2 -13 -6.5 -18.5t-17.5 -6.5l-1069 -37q-26 1 -26 25z" />
<glyph unicode="&#x2014;" horiz-adv-x="2534" d="M170 679l21 181q1 8 3 12.5t7.5 8t15.5 3.5l2202 79q24 -1 24 -26l-22 -179q-2 -14 -7 -20t-18 -7l-2200 -77q-26 1 -26 25z" />
<glyph unicode="&#x2018;" horiz-adv-x="585" d="M248 1226q0 119 54 262.5t105 222.5q7 11 10.5 15.5t10.5 9t16 4.5q42 3 68 3q20 0 20 -21q0 -13 -14 -72q-40 -168 -48 -276q46 -14 70 -52.5t24 -83.5q0 -69 -52.5 -120t-123.5 -51q-64 0 -102 46t-38 113z" />
<glyph unicode="&#x2019;" horiz-adv-x="585" d="M242 1571q0 69 52.5 120t123.5 51q64 0 102 -46t38 -113q0 -119 -54 -262.5t-105 -222.5q-7 -11 -10.5 -15.5t-10.5 -9t-16 -4.5q-42 -3 -68 -3q-20 0 -20 21q0 13 14 72q40 168 48 276q-46 14 -70 52.5t-24 83.5z" />
<glyph unicode="&#x201a;" horiz-adv-x="585" d="M99 132q0 69 52.5 120t123.5 51q64 0 102 -46t38 -113q0 -119 -54 -262.5t-105 -222.5q-7 -11 -10.5 -15.5t-10.5 -9t-16 -4.5q-42 -3 -68 -3q-20 0 -20 21q0 13 14 72q40 168 48 276q-46 14 -70 52.5t-24 83.5z" />
<glyph unicode="&#x201c;" horiz-adv-x="1055" d="M248 1226q0 119 54 262.5t105 222.5q7 11 10.5 15.5t10.5 9t16 4.5q42 3 68 3q20 0 20 -21q0 -13 -14 -72q-40 -168 -48 -276q46 -14 70 -52.5t24 -83.5q0 -69 -52.5 -120t-123.5 -51q-64 0 -102 46t-38 113zM718 1226q0 119 54 262.5t105 222.5q7 11 10.5 15.5t10.5 9 t16 4.5q42 3 68 3q20 0 20 -21q0 -13 -14 -72q-40 -168 -48 -276q46 -14 70 -52.5t24 -83.5q0 -69 -52.5 -120t-123.5 -51q-64 0 -102 46t-38 113z" />
<glyph unicode="&#x201d;" horiz-adv-x="1056" d="M242 1571q0 69 52.5 120t123.5 51q64 0 102 -46t38 -113q0 -119 -54 -262.5t-105 -222.5q-7 -11 -10.5 -15.5t-10.5 -9t-16 -4.5q-42 -3 -68 -3q-20 0 -20 21q0 13 14 72q40 168 48 276q-46 14 -70 52.5t-24 83.5zM713 1571q0 69 52.5 120t123.5 51q64 0 102 -46t38 -113 q0 -119 -54 -262.5t-105 -222.5q-7 -11 -10.5 -15.5t-10.5 -9t-16 -4.5q-42 -3 -68 -3q-20 0 -20 21q0 13 14 72q40 168 48 276q-46 14 -70 52.5t-24 83.5z" />
<glyph unicode="&#x201e;" horiz-adv-x="1055" d="M99 132q0 69 52.5 120t123.5 51q64 0 102 -46t38 -113q0 -119 -54 -262.5t-105 -222.5q-7 -11 -10.5 -15.5t-10.5 -9t-16 -4.5q-42 -3 -68 -3q-20 0 -20 21q0 13 14 72q40 168 48 276q-46 14 -70 52.5t-24 83.5zM569 132q0 69 52.5 120t123.5 51q64 0 102 -46t38 -113 q0 -119 -54 -262.5t-105 -222.5q-7 -11 -10.5 -15.5t-10.5 -9t-16 -4.5q-42 -3 -68 -3q-20 0 -20 21q0 13 14 72q40 168 48 276q-46 14 -70 52.5t-24 83.5z" />
<glyph unicode="&#x2022;" horiz-adv-x="585" d="M134 694q0 90 66.5 155t157.5 65q77 0 129 -53t52 -129q0 -90 -68 -155t-158 -65q-77 0 -128 52t-51 130z" />
<glyph unicode="&#x202f;" horiz-adv-x="387" />
<glyph unicode="&#x2039;" horiz-adv-x="737" d="M185 572q0 10 6 18l307 393q19 25 43 26l176 6q25 -1 25 -26l-286 -398l163 -408q0 -14 -5 -20t-20 -7l-165 -6q-22 1 -33 21l-208 390q-3 7 -3 11z" />
<glyph unicode="&#x203a;" horiz-adv-x="737" d="M20 181l286 398l-163 408q0 14 5 20t20 7l165 6q22 -1 33 -21l208 -390q3 -7 3 -11q0 -10 -6 -18l-307 -393q-19 -25 -43 -26l-176 -6q-25 1 -25 26z" />
<glyph unicode="&#x205f;" horiz-adv-x="484" />
<glyph unicode="&#x20ac;" d="M72 470l20 179q1 9 2.5 13.5t7.5 8.5t16 4l655 24q23 -1 23 -25l-21 -180q-3 -24 -25 -25l-654 -25q-24 1 -24 26zM113 822l20 179q1 9 2.5 13.5t7.5 8.5t16 4l655 24q23 -1 23 -25l-21 -180q-3 -24 -25 -25l-654 -25q-24 1 -24 26zM208 365q0 309 74 718 q12 68 23.5 115.5t30.5 102.5t42.5 91.5t60 72.5t83 56.5t110.5 33.5t143 13q91 0 161 -11q11 -2 16 -3.5t9 -7.5t4 -17l-23 -186q-4 -26 -21 -26q-15 0 -68 8q-63 9 -99 9q-96 0 -146 -48.5t-75 -188.5q-24 -135 -47 -366.5t-23 -354.5q0 -145 128 -145q37 0 139 14 q82 11 95 11q21 0 21 -25l-23 -186q-2 -12 -7 -17t-19 -8q-172 -31 -267 -31q-156 0 -239 101t-83 275z" />
<glyph unicode="&#xe000;" horiz-adv-x="1210" d="M0 0v1210h1210v-1210h-1210z" />
</font>
</defs>
</svg>
